<?xml version="1.0" encoding="UTF-8"?>
<!-- Generated by Pixelmator Pro 3.4.3 -->
<svg width="512" height="512" viewBox="0 0 512 512" xmlns="http://www.w3.org/2000/svg">
    <g id="Group">
        <path id="Path" fill="#94ccd4" stroke="none" d="M 512 273.624329 C 512 200.521667 479.093964 135.104126 427.286163 91.376038 C 385.791504 56.351929 269.217224 52.340424 269.217224 52.340424 L 184.730011 52.827698 C 184.101593 53.093475 183.342346 52.909058 182.717041 53.180023 C 99.909027 89.114777 46.171688 174.258209 46.171688 273.231812 C 46.171688 404.886902 144.330429 494.473541 275.985504 494.473541 C 315.567108 494.473541 350.526306 502.360596 383.378815 485.289459 C 459.799713 445.580109 512 365.697815 512 273.624329 Z"/>
        <path id="path1" fill="#b7e546" stroke="none" d="M 427.288208 91.373962 C 403.048035 107.228455 377.025696 122.95932 367.269867 125.091797 C 340.495453 132.921173 305.64444 116.335266 298.48465 155.822113 C 298.278625 163.445435 297.609039 170.687622 296.465515 177.445587 C 295.18811 184.986542 292.386017 192.084473 288.316772 198.389191 C 284.247589 204.693909 273.417297 206.533783 267.112549 210.860565 C 249.754013 222.790039 235.649811 223.505005 216.962326 213.769775 C 216.488434 213.522552 216.004242 213.264984 215.520065 213.007446 C 184.387985 197.750458 166.099182 162.662506 198.374771 137.021301 C 219.586182 119.508209 216.378204 88.61618 201.553894 69.310577 L 192.632523 58.988159 C 199.558441 56.12735 196.738846 47.78186 203.974823 45.574188 C 226.005249 38.853271 249.389313 35.23941 273.615051 35.23941 C 332.1716 35.23941 385.792511 56.347809 427.288208 91.373962 Z"/>
        <path id="path2" fill="#b7e546" stroke="none" d="M 458.498596 214.61557 C 458.365692 194.93808 450.420929 176.106384 436.407379 162.281342 C 424.452118 148.60257 420.316956 140.45282 403.88559 155.55426 C 388.31131 174.926819 403.672333 198.971222 370.56955 232.00708 C 364.706787 237.974915 361.417419 246.144257 361.748077 254.518585 C 361.735718 254.516541 361.740875 253.039276 361.729523 253.037201 C 362.919403 273.779907 377.087494 290.500732 397.281097 290.500732 C 423.221039 290.499756 458.498596 260.049622 458.498596 214.61557 Z"/>
        <path id="path3" fill="#abd641" stroke="none" d="M 383.866058 230.469025 C 378.004333 236.444061 374.707764 244.613403 375.037415 252.98877 C 375.02713 252.978485 375.02713 252.96817 375.016815 252.96817 C 376.005798 270.141296 390.891907 284.594727 407.44693 289.065704 C 403.97522 290.013489 400.555023 290.497681 397.279053 290.497681 C 377.087494 290.497681 355.608215 273.716003 354.413208 252.96817 C 354.423523 252.96817 354.423523 252.978485 354.433777 252.98877 C 354.104156 244.613403 357.400726 236.444061 363.262451 230.469025 C 396.362183 197.441406 377.180206 171.635376 392.756531 152.267975 C 402.141479 143.635071 411.155548 143.67627 419.376404 147.848511 C 417.388184 148.950806 415.389618 150.403351 413.360168 152.267975 C 397.783813 171.635376 416.96579 197.441406 383.866058 230.469025 Z"/>
        <path id="path4" fill="#dc4955" stroke="none" d="M 480.891632 18.036407 L 480.891632 137.028503 L 473.309479 144.227417 C 473.309479 154.184113 461.989838 155.684052 452.032135 155.684052 L 397.608673 155.275085 C 395.076508 155.275085 392.608185 156.074493 390.558136 157.560028 L 345.647369 188.744629 C 341.673981 191.622955 336.112061 188.783783 336.112061 183.878052 L 340.327515 168.879639 C 340.327515 162.24118 334.945862 156.860535 328.308411 156.860535 L 313.885864 156.860535 C 303.929169 156.860535 295.856659 148.789032 295.856659 138.831329 L 293.683014 27.205017 C 293.683014 17.248322 297.637848 6.746643 307.594574 6.746643 L 312.619781 0.00824 L 462.862427 0.00824 C 472.820129 0.007202 480.891632 8.078674 480.891632 18.036407 Z"/>
        <path id="path5" fill="#d82f3c" stroke="none" d="M 480.891632 137.028503 L 480.891632 143.038605 C 480.891632 152.99527 472.820129 161.06778 462.862427 161.06778 L 398.342163 161.06778 C 395.805878 161.06778 393.341675 161.873383 391.298828 163.351685 L 342.583618 198.628204 C 338.617432 201.512695 333.052399 198.676605 333.052399 193.76059 L 333.052399 173.086914 C 333.052399 166.448425 327.670746 161.06778 321.033264 161.06778 L 306.609711 161.06778 C 296.653015 161.06778 288.580505 152.996307 288.580505 143.038605 L 288.580505 18.036407 C 288.580505 8.079712 296.651978 0.007202 306.609711 0.007202 L 312.619781 0.007202 L 312.619781 134.625092 C 312.619781 135.953003 313.69632 137.028503 315.023193 137.028503 L 321.033264 137.028503 C 334.867584 137.028503 346.903168 144.852722 352.947235 156.318634 C 353.977417 158.272888 356.475647 158.889984 358.265045 157.592987 L 377.187408 143.879211 C 383.377777 139.395874 390.697205 137.028503 398.341125 137.028503 Z"/>
        <path id="path6" fill="#6fbbc6" stroke="none" d="M 330.276062 491.176941 C 195.466568 491.176941 86.174652 382.204376 86.174652 247.786346 C 86.174652 167.730988 122.877937 97.539612 182.721161 53.180023 C 96.156067 88.911835 35.232193 174.154175 35.232193 273.623291 C 35.232193 314.157837 45.348572 352.329132 63.195431 385.750275 C 63.195431 385.750275 119.844055 430.614655 148.489273 451.696289 C 188.004959 480.77829 264.786407 499.536865 264.786407 499.536865 C 264.786407 499.536865 350.221405 502.435791 382.98114 485.479034 C 366.002747 489.20932 348.376343 491.176941 330.276062 491.176941 Z"/>
        <path id="path7" fill="#b7e546" stroke="none" d="M 383.366455 485.26474 C 364.210236 458.584076 328.980103 429.170349 330.494476 393.743469 C 331.010559 381.665619 329.41687 369.547607 325.440399 358.125977 C 325.377533 357.971436 325.327057 357.820007 325.276611 357.669617 C 323.265686 352.012878 320.245178 346.778503 316.484009 342.112854 C 306.101837 329.214966 283.947784 295.565125 273.115448 290.846893 C 252.43042 278.053101 224.42598 287.5802 213.359772 308.586609 C 203.754364 332.885498 201.104736 366.178894 176.012619 379.284851 C 161.013184 387.419189 139.394836 385.591644 127.98455 372.123047 C 108.187553 346.409729 80.470535 371.272095 63.219124 385.73996 C 70.073952 398.546143 98.042336 407.934204 107.087318 419.292969 C 144.616821 466.435089 178.018372 484.607483 233.010483 494.475616 C 284.161041 503.757507 336.648773 509.53064 382.809113 485.548035 C 382.994537 485.451202 383.181 485.360535 383.366455 485.26474 Z"/>
        <path id="path8" fill="#abd641" stroke="none" d="M 382.887421 485.500671 C 341.90683 506.822296 294.585419 515.518066 248.675415 510.698883 L 248.675415 510.688568 C 171.083206 503.101288 99.475311 454.700287 63.222214 385.737915 C 76.861809 374.292603 97.06366 356.336548 114.710663 362.074646 C 155.763382 438.895264 236.900452 491.176941 330.276062 491.176941 C 348.345459 491.176941 365.940918 489.219604 382.887421 485.500671 Z"/>
        <path id="path9" fill="#ffbf54" stroke="none" d="M 436.049896 279.111084 L 436.049896 398.10318 L 428.467773 405.302094 C 428.467773 415.258789 417.148132 416.758728 407.190399 416.758728 L 352.766968 416.349762 C 350.234772 416.349762 347.766479 417.14917 345.716431 418.634674 L 300.805664 449.819275 C 296.832245 452.697632 291.270294 449.858429 291.270294 444.952698 L 295.485809 429.954315 C 295.485809 423.315826 290.104156 417.935211 283.466675 417.935211 L 269.043121 417.935211 C 259.086426 417.935211 251.013931 409.863708 251.013931 399.906006 L 248.84024 288.279724 C 248.84024 278.322998 252.79512 267.82135 262.751801 267.82135 L 267.777039 261.082916 L 418.019684 261.082916 C 427.977386 261.081879 436.049896 269.154388 436.049896 279.111084 Z"/>
        <path id="path10" fill="#ffa442" stroke="none" d="M 436.049896 398.10318 L 436.049896 404.113251 C 436.049896 414.070984 427.978424 422.142456 418.020691 422.142456 L 353.500458 422.142456 C 350.964172 422.142456 348.499969 422.948059 346.457123 424.426361 L 297.741913 459.70285 C 293.775726 462.587372 288.210663 459.751282 288.210663 454.835266 L 288.210663 434.16156 C 288.210663 427.523071 282.82901 422.142456 276.191559 422.142456 L 261.767975 422.142456 C 251.811295 422.142456 243.738785 414.070984 243.738785 404.113251 L 243.738785 279.111084 C 243.738785 269.154388 251.810257 261.081879 261.767975 261.081879 L 267.778076 261.081879 L 267.778076 395.699768 C 267.778076 397.027649 268.854584 398.10318 270.181458 398.10318 L 276.191559 398.10318 C 290.025848 398.10318 302.061462 405.927399 308.10553 417.393311 C 309.135712 419.347595 311.633911 419.964661 313.423309 418.667664 L 332.345703 404.953888 C 338.536072 400.470551 345.855469 398.10318 353.49942 398.10318 Z"/>
        <path id="path11" fill="#faf8f8" stroke="none" d="M 431.44809 58.988159 C 435.715088 58.988159 439.174438 55.528809 439.174438 51.26181 C 439.174438 46.994812 435.715088 43.535461 431.44809 43.535461 L 391.451294 43.535461 L 391.451294 30.397552 C 391.451294 26.130554 387.991943 22.671204 383.724945 22.671204 C 379.457947 22.671204 375.998596 26.130554 375.998596 30.397552 L 375.998596 43.535461 L 336.001801 43.535461 C 331.734772 43.535461 328.275421 46.994812 328.275421 51.26181 C 328.275421 55.528809 331.734772 58.988159 336.001801 58.988159 L 352.022156 58.988159 C 355.731842 75.430878 363.069824 90.55188 373.289215 103.412659 C 365.469086 110.878387 356.320068 117.067719 346.118164 121.614929 L 335.473297 126.358917 C 331.575104 128.095795 329.823822 132.663635 331.560669 136.560791 C 332.842255 139.437073 335.664917 141.144073 338.622589 141.144073 C 339.67334 141.144073 340.741669 140.928772 341.762573 140.473419 L 352.40744 135.729462 C 364.150452 130.496124 374.695404 123.390961 383.724945 114.823975 C 392.754456 123.390961 403.299408 130.496124 415.04245 135.729462 L 425.687317 140.473419 C 426.709259 140.928772 427.776489 141.144073 428.827301 141.144073 C 431.784973 141.144073 434.607635 139.436035 435.889191 136.560791 C 437.626068 132.663635 435.874786 128.095795 431.976593 126.358917 L 421.331696 121.614929 C 411.128815 117.068756 401.980804 110.878387 394.160675 103.412659 C 404.380066 90.55188 411.71701 75.430878 415.426727 58.988159 Z M 383.724945 91.637695 C 376.484802 81.967377 371.08255 70.917664 367.927124 58.988159 L 399.521729 58.988159 C 396.366302 70.917664 390.965027 81.967377 383.724945 91.637695 Z"/>
        <path id="path12" fill="#faf8f8" stroke="none" d="M 399.077728 294.123901 L 363.133667 294.123901 C 358.866669 294.123901 355.407318 297.583252 355.407318 301.85025 C 355.407318 306.117249 358.866669 309.576599 363.133667 309.576599 L 373.378845 309.576599 L 373.378845 333.785889 L 342.645447 333.785889 C 344.44104 330.129761 345.45166 326.021423 345.45166 321.681244 C 345.45166 306.486084 333.089478 294.123901 317.894318 294.123901 L 295.584686 294.123901 C 291.317688 294.123901 287.858337 297.583252 287.858337 301.85025 C 287.858337 306.117249 291.317688 309.576599 295.584686 309.576599 L 317.894318 309.576599 C 324.568848 309.576599 329.998932 315.006714 329.998932 321.681244 C 329.998932 328.355774 324.568848 333.785889 317.894318 333.785889 L 293.105072 333.785889 C 288.838074 333.785889 285.378723 337.245239 285.378723 341.512207 C 285.378723 345.779236 288.838074 349.238586 293.105072 349.238586 L 317.894318 349.238586 C 324.568848 349.238586 329.998932 354.668701 329.998932 361.343201 C 329.998932 368.131104 324.68219 373.447845 317.894318 373.447845 C 307.219574 373.447845 295.101532 372.244598 286.174011 363.317078 C 283.156586 360.299622 278.264282 360.299622 275.247894 363.317078 C 272.230499 366.334442 272.230499 371.226807 275.247894 374.243164 C 288.239532 387.234802 304.863556 388.900574 317.894318 388.900574 C 333.089478 388.900574 345.45166 376.538391 345.45166 361.343201 C 345.45166 357.003082 344.44104 352.894714 342.645447 349.238586 L 373.378845 349.238586 L 373.378845 381.174194 C 373.378845 385.441223 376.838196 388.900574 381.105194 388.900574 C 385.372192 388.900574 388.831543 385.441223 388.831543 381.174194 L 388.831543 309.576599 L 399.076721 309.576599 C 403.343719 309.576599 406.80307 306.117249 406.80307 301.85025 C 406.80307 297.583252 403.344757 294.123901 399.077728 294.123901 Z"/>
        <path id="path13" fill="#abd641" stroke="none" d="M 206.20105 150.331238 L 205.902283 150.578491 C 201.925797 153.741119 188.121368 166.38147 178.334656 177.218964 C 174.399353 162.353455 177.819565 146.571075 193.086838 134.445862 C 214.298279 116.93277 206.468887 82.813171 191.644592 63.507568 L 182.717041 53.180023 C 189.639862 50.316101 196.733688 47.776703 203.975861 45.572113 C 210.383575 55.307343 216.08049 63.507568 216.08049 63.507568 C 231.440491 92.115692 232.130707 128.934357 206.20105 150.331238 Z"/>
        <path id="path14" fill="#abd641" stroke="none" d="M 289.182129 196.988129 C 288.903992 197.462036 288.61554 197.925598 288.316772 198.389191 C 284.247589 204.693909 278.931854 210.195068 272.627136 214.52182 C 255.26857 226.451324 232.759125 227.790558 214.07164 218.055359 C 213.597748 217.808105 213.113556 217.550568 212.629364 217.292999 C 183.331039 202.932281 163.293991 164.949524 187.925629 139.153778 C 180.085953 162.827332 198.598312 190.158051 223.518387 201.840302 C 224.023193 202.097839 224.527969 202.355377 225.022446 202.602631 C 244.554688 212.33783 268.084045 210.998596 286.225494 199.069092 C 287.235107 198.40979 288.22406 197.719574 289.182129 196.988129 Z"/>
        <g id="g1">
            <path id="path15" fill="#94ccd4" stroke="none" d="M 246.071121 510.405273 C 246.137039 510.412506 246.202988 510.420746 246.268906 510.427948 C 246.202988 510.420746 246.137039 510.413513 246.071121 510.405273 Z"/>
            <path id="path16" fill="#94ccd4" stroke="none" d="M 172.179306 489.379272 C 172.413162 489.489502 172.649078 489.596649 172.882919 489.705872 C 172.648041 489.596649 172.413162 489.489502 172.179306 489.379272 Z"/>
            <path id="path17" fill="#94ccd4" stroke="none" d="M 382.980133 485.480042 C 378.725464 487.684631 374.409027 489.75531 370.010162 491.692017 C 374.336884 489.775909 378.601868 487.725861 382.804993 485.54184 C 382.835876 485.531555 382.856506 485.510925 382.887421 485.500671 C 382.918335 485.490356 382.949219 485.490356 382.980133 485.480042 Z"/>
        </g>
        <path id="path18" fill="#faf8f8" stroke="none" d="M 8.296049 141.144073 L 9.808354 244.81842 C 9.808354 254.970856 18.080709 263.200989 28.285683 263.200989 L 86.290031 265.096497 C 88.885056 265.096497 91.414146 265.912415 93.515717 267.426758 L 133.102493 300.89325 C 137.174805 303.828217 142.874786 300.933411 142.874786 295.930847 L 145.376068 279.751862 C 145.376068 272.983551 150.890625 267.496826 157.693939 267.496826 L 176.838837 267.426758 C 187.043793 267.426758 197.092178 265.003784 197.092178 254.851349 L 197.092178 127.396301 C 197.092178 117.243866 188.819824 109.013763 178.614868 109.013763 L 18.477329 109.013763 C 8.272354 109.013763 8.296049 130.991638 8.296049 141.144073 Z"/>
        <path id="path19" fill="#aad8de" stroke="none" d="M 107.552963 143.303345 C 107.530296 143.244629 107.507637 143.185883 107.48394 143.127197 C 105.967514 139.421631 102.401031 137.025421 98.397743 137.021301 C 98.393631 137.021301 98.391571 137.021301 98.387444 137.021301 C 94.389313 137.021301 90.8218 139.410278 89.299187 143.108643 C 89.27034 143.17868 89.242523 143.249756 89.214706 143.321899 L 54.717037 234.736023 C 53.210915 238.727966 55.225948 243.186615 59.217899 244.692749 C 63.210884 246.198853 67.669502 244.183807 69.174599 240.191864 L 75.880043 222.424347 L 121.151352 222.424347 L 127.926857 240.214539 C 129.101257 243.297852 132.035233 245.19339 135.148422 245.19339 C 136.062195 245.19339 136.992462 245.029602 137.896942 244.685516 C 141.884781 243.167023 143.885391 238.703278 142.366898 234.715424 Z M 81.710876 206.971619 L 98.41114 162.71814 L 115.26593 206.971619 Z"/>
        <path id="path20" fill="#f0e9e6" stroke="none" d="M 197.094254 252.628235 L 197.094254 254.853394 C 197.094254 265.000671 188.821884 273.231812 178.612808 273.231812 L 163.829697 273.231812 C 157.030502 273.231812 151.519043 278.722717 151.519043 285.491028 L 151.519043 306.578796 C 151.519043 311.575165 145.811829 314.469971 141.742615 311.533997 L 91.830345 275.560059 C 89.728767 274.045685 87.194527 273.231812 84.598473 273.231812 L 18.481449 273.231812 C 8.272354 273.231812 0 265.000671 0 254.853394 L 0 127.399414 C 0 117.241821 8.272354 109.010681 18.481449 109.010681 L 20.603622 109.010681 L 20.603622 247.477325 C 20.603622 250.321655 22.910198 252.628235 25.754528 252.628235 L 84.598473 252.628235 C 91.521286 252.628235 98.268974 254.812195 103.873161 258.850525 L 126.897705 275.446747 C 129.102295 277.033203 132.172241 276.064819 133.161209 273.540894 C 137.961853 261.312622 149.901642 252.628235 163.829697 252.628235 Z"/>
    </g>
</svg>
