<?xml version="1.0" encoding="UTF-8"?>
<!-- Generated by Pixelmator Pro 3.4.3 -->
<svg width="512" height="482" viewBox="0 0 512 482" xmlns="http://www.w3.org/2000/svg">
    <g id="XMLID1448">
        <path id="XMLID5154" fill="#453d81" stroke="none" d="M 189.941956 391.588226 C 188.837646 394.901154 170.96785 448.51059 169.863525 451.823517 L 212.931778 466.882355 L 256 451.823517 L 271.058838 421.705872 L 256 391.588226 L 222.970993 376.529419 Z"/>
        <path id="XMLID5141" fill="#2e2654" stroke="none" d="M 322.058014 391.588226 L 289.029022 376.529419 L 256 391.588226 L 256 451.823517 L 299.068237 466.882355 L 342.136444 451.823517 C 341.032166 448.51059 323.162354 394.901154 322.058014 391.588226 Z"/>
        <path id="XMLID5265" fill="#5e54ac" stroke="none" d="M 0 0.058838 L 0 391.588226 L 256 391.588226 L 271.058838 195.823517 L 256 0.058838 C 248.771774 0.058838 7.228235 0.058838 0 0.058838 Z"/>
        <path id="XMLID5264" fill="#453d81" stroke="none" d="M 512 0.058838 C 504.771759 0.058838 263.228241 0.058838 256 0.058838 L 256 391.588226 L 512 391.588226 C 512 380.545105 512 11.101959 512 0.058838 Z"/>
        <path id="XMLID5259" fill="#f9f9f9" stroke="none" d="M 30.117647 30.176483 L 30.117647 361.470581 L 256 361.470581 L 271.058838 195.823517 L 256 30.176483 C 240.740402 30.176483 45.377254 30.176483 30.117647 30.176483 Z"/>
        <path id="XMLID5258" fill="#d8f1fb" stroke="none" d="M 481.882355 30.176483 C 466.622742 30.176483 271.259613 30.176483 256 30.176483 L 256 361.470581 L 481.882355 361.470581 C 481.882355 343.098816 481.882355 48.548248 481.882355 30.176483 Z"/>
        <path id="XMLID5257" fill="#00cb75" stroke="none" d="M 75.294121 271.117645 L 75.294121 301.235291 L 256 301.235291 L 271.058838 286.176453 L 256 271.117645 C 245.960785 271.117645 85.333336 271.117645 75.294121 271.117645 Z"/>
        <path id="XMLID5245" fill="#ec3d93" stroke="none" d="M 75.294121 90.411774 L 75.294121 120.529419 L 256 120.529419 L 271.058838 105.470581 L 256 90.411774 C 245.960785 90.411774 85.333336 90.411774 75.294121 90.411774 Z"/>
        <path id="XMLID5235" fill="#5e54ac" stroke="none" d="M 135.529419 451.823517 L 135.529419 481.941162 L 256 481.941162 L 271.058838 466.882355 L 256 451.823517 C 241.44313 451.823517 150.186676 451.823517 135.529419 451.823517 Z"/>
        <path id="XMLID5234" fill="#453d81" stroke="none" d="M 376.470581 451.823517 C 361.913727 451.823517 270.657257 451.823517 256 451.823517 L 256 481.941162 L 376.470581 481.941162 C 376.470581 471.399994 376.470581 462.364716 376.470581 451.823517 Z"/>
        <path id="XMLID5233" fill="#f4d844" stroke="none" d="M 75.294121 180.764709 L 75.294121 210.882355 L 256 210.882355 L 271.058838 195.823517 L 256 180.764709 C 245.960785 180.764709 85.333336 180.764709 75.294121 180.764709 Z"/>
        <path id="XMLID3" fill="#00a78e" stroke="none" d="M 256 271.117645 L 256 301.235291 L 436.705872 301.235291 C 436.705872 290.694122 436.705872 281.658813 436.705872 271.117645 C 426.666656 271.117645 266.039215 271.117645 256 271.117645 Z"/>
        <path id="XMLID2" fill="#d01273" stroke="none" d="M 256 90.411774 L 256 120.529419 L 436.705872 120.529419 C 436.705872 109.98822 436.705872 100.952942 436.705872 90.411774 C 426.666656 90.411774 266.039215 90.411774 256 90.411774 Z"/>
        <path id="XMLID1" fill="#ecbd2c" stroke="none" d="M 256 180.764709 L 256 210.882355 L 436.705872 210.882355 C 436.705872 200.341187 436.705872 191.305878 436.705872 180.764709 C 426.666656 180.764709 266.039215 180.764709 256 180.764709 Z"/>
        <path id="XMLID5286" fill="#bee75e" stroke="none" d="M 195.764709 286.176453 C 195.764709 302.809998 182.280579 316.294128 165.647064 316.294128 C 149.013535 316.294128 135.529419 302.809998 135.529419 286.176453 C 135.529419 269.542969 149.013535 256.058838 165.647064 256.058838 C 182.280579 256.058838 195.764709 269.542969 195.764709 286.176453 Z"/>
        <path id="XMLID5212" fill="#e58f22" stroke="none" d="M 325.069794 174.540405 C 319.648621 179.961578 316.235291 187.490967 316.235291 195.823517 C 316.235291 212.488647 329.687836 225.941162 346.352936 225.941162 C 354.685486 225.941162 362.214905 222.527863 367.636078 217.106659 C 379.381958 205.360779 379.381958 186.286285 367.636078 174.540405 C 355.890198 162.794525 336.815674 162.794525 325.069794 174.540405 Z"/>
        <path id="XMLID5216" fill="#df5ccb" stroke="none" d="M 195.764709 105.470581 C 195.764709 122.104095 182.280579 135.588226 165.647064 135.588226 C 149.013535 135.588226 135.529419 122.104095 135.529419 105.470581 C 135.529419 88.837067 149.013535 75.352936 165.647064 75.352936 C 182.280579 75.352936 195.764709 88.837067 195.764709 105.470581 Z"/>
    </g>
</svg>
