<?xml version="1.0" encoding="UTF-8"?>
<!-- Generated by Pixelmator Pro 3.4.3 -->
<svg width="512" height="489" viewBox="0 0 512 489" xmlns="http://www.w3.org/2000/svg">
    <path id="Path" fill="#f4f6f8" stroke="none" d="M 511.335052 40.238434 L 511.335052 448.761597 C 511.305725 470.885864 493.356934 488.805573 471.226166 488.805573 L 40.720623 488.805573 C 18.59848 488.805573 0.664934 470.877258 0.664934 448.761597 L 0.664934 40.238434 C 0.664934 18.122742 18.59848 0.194458 40.720623 0.194458 L 471.226166 0.194458 C 493.332764 0.252716 511.247406 18.138397 511.335052 40.238434 Z"/>
    <path id="path1" fill="#e4e8eb" stroke="none" d="M 511.335052 40.238434 L 511.335052 448.708405 C 511.305725 470.832672 493.356934 488.75238 471.226166 488.75238 L 40.720623 488.75238 C 18.59848 488.75238 0.664934 470.824066 0.664934 448.708405 L 0.664934 444.400848 L 194.719589 444.400848 C 342.414825 444.371521 462.129883 324.667603 462.129883 177.015533 L 462.129883 0.194458 L 471.226166 0.194458 C 493.332764 0.252716 511.247406 18.138397 511.335052 40.238434 Z"/>
    <path id="path2" fill="#b4df80" stroke="none" d="M 106.682182 390.636658 L 204.241455 390.636658 C 209.911545 390.636658 214.508057 395.231812 214.508057 400.900238 L 214.508057 428.234375 C 214.508057 433.902802 209.911545 438.497986 204.241455 438.497986 L 106.682182 438.497986 C 101.012093 438.497986 96.415588 433.902802 96.415588 428.234375 L 96.415588 400.900238 C 96.415588 395.231812 101.012093 390.636658 106.682182 390.636658 Z"/>
    <path id="path3" fill="#9ed26a" stroke="none" d="M 214.508057 400.847046 L 214.508057 428.234375 C 214.508087 430.951569 213.424728 433.556732 211.497818 435.473114 C 209.570923 437.389465 206.959427 438.458954 204.241455 438.444794 L 106.628983 438.444794 C 100.988281 438.444794 96.415588 433.873444 96.415588 428.234375 L 96.415588 419.300262 L 157.696014 419.300262 C 175.051636 419.319763 190.160049 407.447601 194.240829 390.583466 L 204.241455 390.583466 C 206.968658 390.569214 209.588287 391.645996 211.516754 393.573853 C 213.445206 395.50177 214.522308 398.120605 214.508057 400.847046 Z"/>
    <path id="path4" fill="#f76c82" stroke="none" d="M 50.029716 259.230652 L 83.808411 270.451477 C 83.90979 270.554871 83.90979 270.720337 83.808411 270.82373 L 67.849968 302.731262 L 67.849968 302.731262 L 93.277092 328.151001 C 93.277092 328.151001 93.277092 328.151001 93.543053 328.151001 L 125.459946 312.197235 L 125.832314 312.197235 L 137.109619 345.966064 L 137.109619 345.966064 L 173.069305 345.966064 C 173.154922 345.998779 173.249634 345.998779 173.335281 345.966064 L 184.559372 312.197235 C 184.559372 312.197235 184.559372 312.197235 184.931747 312.197235 L 216.848618 328.151001 C 216.848618 328.151001 216.848618 328.151001 216.848618 328.151001 L 242.86087 302.997192 L 242.86087 302.997192 L 226.902435 271.08963 C 226.801071 270.986206 226.801071 270.820801 226.902435 270.717407 L 260.681152 259.496582 C 260.713867 259.41095 260.713867 259.316284 260.681152 259.230652 L 260.681152 223.228271 L 260.681152 223.228271 L 227.115219 211.528839 L 227.115219 211.156616 L 243.073654 179.249054 C 243.121567 179.148071 243.121567 179.030945 243.073654 178.929932 L 217.646561 153.510254 L 217.646561 153.510254 L 185.72966 169.46405 C 185.626236 169.565369 185.460709 169.565369 185.3573 169.46405 L 174.133194 135.695221 C 174.050888 135.647705 173.949509 135.647705 173.867218 135.695221 L 137.481979 135.695221 C 137.481979 135.695221 137.481979 135.695221 137.481979 135.695221 L 126.204674 169.46405 C 126.101265 169.565369 125.935738 169.565369 125.832314 169.46405 L 93.915428 153.510254 L 93.649452 153.510254 L 68.222343 178.929932 C 68.174431 179.030945 68.174431 179.148071 68.222343 179.249054 L 84.180786 211.156616 C 84.260681 211.267822 84.260681 211.417633 84.180786 211.528839 L 50.402081 222.802856 L 50.402081 222.802856 L 50.402081 258.752045 C 50.28178 258.747009 50.166462 258.800415 50.092529 258.895447 C 50.018608 258.990448 49.995205 259.115326 50.029716 259.230652 Z"/>
    <path id="path5" fill="#eb5463" stroke="none" d="M 261.319489 223.228271 L 261.319489 259.17749 C 261.319489 259.17749 261.319489 259.17749 261.319489 259.17749 L 227.487579 270.451477 L 227.487579 270.82373 L 243.44603 302.731262 C 243.470932 302.836212 243.470932 302.945465 243.44603 303.050385 L 218.018921 328.470062 C 218.018921 328.470062 218.018921 328.470062 218.018921 328.470062 L 186.102036 312.516296 C 185.998611 312.414917 185.833084 312.414917 185.72966 312.516296 L 174.452362 346.285126 C 174.452362 346.285126 174.452362 346.285126 174.452362 346.285126 L 137.481979 346.285126 L 137.481979 346.285126 L 126.204674 312.516296 C 126.204674 312.516296 126.204674 312.516296 125.885513 312.516296 L 93.968628 328.470062 L 93.702644 328.470062 L 68.062752 302.997192 C 68.014839 302.89624 68.014839 302.779083 68.062752 302.678162 L 78.06337 282.735901 C 107.972984 298.859772 143.549683 300.68396 174.952469 287.703796 C 206.35524 274.723663 230.255295 248.31514 240.04155 215.783173 L 260.947113 222.749695 C 261.079315 222.646912 261.269836 222.670685 261.37265 222.802856 C 261.475525 222.934998 261.451691 223.125488 261.319489 223.228271 Z"/>
    <path id="path6" fill="#656d78" stroke="none" d="M 511.335052 40.238434 L 511.335052 86.92981 L 0.664934 86.92981 L 0.664934 40.238434 C 0.664934 18.122742 18.59848 0.194458 40.720623 0.194458 L 471.226166 0.194458 C 493.332764 0.252716 511.247406 18.138397 511.335052 40.238434 Z"/>
    <path id="path7" fill="#434a54" stroke="none" d="M 511.335052 40.238434 L 511.335052 86.876648 L 462.129883 86.876648 L 462.129883 40.238434 C 462.071442 18.147003 444.172089 0.252899 422.074188 0.194458 L 471.226166 0.194458 C 493.332764 0.252716 511.247406 18.138397 511.335052 40.238434 Z"/>
    <path id="path8" fill="#ffffff" stroke="none" d="M 75.988777 48.853485 L 52.157505 48.853485 C 49.219639 48.853485 46.838032 46.472534 46.838032 43.535553 C 46.838032 40.598511 49.219639 38.21759 52.157505 38.21759 L 75.988777 38.21759 C 78.926643 38.21759 81.308266 40.598511 81.308266 43.535553 C 81.308266 46.472534 78.926643 48.853485 75.988777 48.853485 Z"/>
    <path id="path9" fill="#ffffff" stroke="none" d="M 126.045097 48.853485 L 102.267014 48.853485 C 99.329155 48.853485 96.947533 46.472534 96.947533 43.535553 C 96.947533 40.598511 99.329155 38.21759 102.267014 38.21759 L 126.045097 38.21759 C 128.982956 38.21759 131.364578 40.598511 131.364578 43.535553 C 131.364578 46.472534 128.982956 48.853485 126.045097 48.853485 Z"/>
    <path id="path10" fill="#ffffff" stroke="none" d="M 176.207794 48.853485 L 152.323318 48.853485 C 149.385452 48.853485 147.00383 46.472534 147.00383 43.535553 C 147.00383 40.598511 149.385452 38.21759 152.323318 38.21759 L 176.207794 38.21759 C 179.14566 38.21759 181.527267 40.598511 181.527267 43.535553 C 181.527267 46.472534 179.14566 48.853485 176.207794 48.853485 Z"/>
    <path id="path11" fill="#ffffff" stroke="none" d="M 461.597931 48.853485 L 300.364471 48.853485 C 297.426605 48.853485 295.044983 46.472534 295.044983 43.535553 C 295.044983 40.598511 297.426605 38.21759 300.364471 38.21759 L 461.597931 38.21759 C 464.535797 38.21759 466.917419 40.598511 466.917419 43.535553 C 466.917419 46.472534 464.535797 48.853485 461.597931 48.853485 Z"/>
    <g id="Group">
        <path id="path12" fill="#434a54" stroke="none" d="M 462.129883 140.747253 L 440.851959 140.747253 C 437.914093 140.747253 435.532471 138.366364 435.532471 135.429321 C 435.532471 132.49231 437.914093 130.111389 440.851959 130.111389 L 462.129883 130.111389 C 465.067719 130.111389 467.449371 132.49231 467.449371 135.429321 C 467.449371 138.366364 465.067719 140.747253 462.129883 140.747253 Z"/>
        <path id="path13" fill="#434a54" stroke="none" d="M 401.43457 140.747253 L 293.98111 140.747253 C 291.043213 140.747253 288.661621 138.366364 288.661621 135.429321 C 288.661621 132.49231 291.043213 130.111389 293.98111 130.111389 L 401.43457 130.111389 C 404.372498 130.111389 406.754059 132.49231 406.754059 135.429321 C 406.754059 138.366364 404.372498 140.747253 401.43457 140.747253 Z"/>
        <path id="path14" fill="#434a54" stroke="none" d="M 462.129883 188.608612 L 293.98111 188.608612 C 291.043213 188.608612 288.661621 186.227692 288.661621 183.290649 C 288.661621 180.353638 291.043213 177.972748 293.98111 177.972748 L 462.129883 177.972748 C 465.067719 177.972748 467.449371 180.353638 467.449371 183.290649 C 467.449371 186.227692 465.067719 188.608612 462.129883 188.608612 Z"/>
        <path id="path15" fill="#434a54" stroke="none" d="M 462.129883 236.46994 L 421.755035 236.46994 C 418.817139 236.46994 416.435547 234.08902 416.435547 231.152008 C 416.435547 228.214996 418.817139 225.834106 421.755035 225.834106 L 462.129883 225.834106 C 465.067719 225.834106 467.449371 228.214996 467.449371 231.152008 C 467.449371 234.08902 465.067719 236.46994 462.129883 236.46994 Z"/>
        <path id="path16" fill="#434a54" stroke="none" d="M 388.348663 236.46994 L 293.98111 236.46994 C 291.043213 236.46994 288.661621 234.08902 288.661621 231.152008 C 288.661621 228.214996 291.043213 225.834106 293.98111 225.834106 L 388.348663 225.834106 C 391.28653 225.834106 393.668152 228.214996 393.668152 231.152008 C 393.668152 234.08902 391.28653 236.46994 388.348663 236.46994 Z"/>
        <path id="path17" fill="#434a54" stroke="none" d="M 462.129883 284.331299 L 293.98111 284.331299 C 291.043213 284.331299 288.661621 281.950378 288.661621 279.013367 C 288.661621 276.076324 291.043213 273.695435 293.98111 273.695435 L 462.129883 273.695435 C 465.067719 273.695435 467.449371 276.076324 467.449371 279.013367 C 467.449371 281.950378 465.067719 284.331299 462.129883 284.331299 Z"/>
        <path id="path18" fill="#434a54" stroke="none" d="M 462.129883 381.064362 L 293.98111 381.064362 C 291.043213 381.064362 288.661621 378.683441 288.661621 375.746429 C 288.661621 372.809448 291.043213 370.428497 293.98111 370.428497 L 462.129883 370.428497 C 465.067719 370.428497 467.449371 372.809448 467.449371 375.746429 C 467.449371 378.683441 465.067719 381.064362 462.129883 381.064362 Z"/>
        <path id="path19" fill="#434a54" stroke="none" d="M 462.129883 332.192627 L 363.453461 332.192627 C 360.515625 332.192627 358.134003 329.811676 358.134003 326.874664 C 358.134003 323.937683 360.515625 321.556763 363.453461 321.556763 L 462.129883 321.556763 C 465.067719 321.556763 467.449371 323.937683 467.449371 326.874664 C 467.449371 329.811676 465.067719 332.192627 462.129883 332.192627 Z"/>
        <path id="path20" fill="#434a54" stroke="none" d="M 334.621918 332.192627 L 293.98111 332.192627 C 291.043213 332.192627 288.661621 329.811676 288.661621 326.874664 C 288.661621 323.937683 291.043213 321.556763 293.98111 321.556763 L 334.621918 321.556763 C 337.559784 321.556763 339.941406 323.937683 339.941406 326.874664 C 339.941406 329.811676 337.559784 332.192627 334.621918 332.192627 Z"/>
    </g>
    <path id="path21" fill="#ffffff" stroke="none" d="M 134.449875 287.043396 C 133.599152 287.046844 132.760025 286.846252 132.002914 286.458435 C 129.414658 285.112152 128.39415 281.932922 129.715546 279.332428 L 171.739426 197.542694 C 172.570175 195.792297 174.28743 194.63208 176.221832 194.514221 C 178.156235 194.396362 180.001709 195.339569 181.03891 196.976135 C 182.076126 198.612762 182.140915 200.683777 181.208099 202.38205 L 138.971436 284.331299 C 138.050018 285.971039 136.330765 287.002319 134.449875 287.043396 Z"/>
    <path id="path22" fill="#ffffff" stroke="none" d="M 179.133514 275.078064 C 177.719589 275.086243 176.36055 274.531311 175.356674 273.535889 C 173.294189 271.4617 173.294189 268.111786 175.356674 266.037598 L 188.283005 253.115036 L 175.356674 240.192459 C 174.349625 239.193939 173.783188 237.834717 173.783188 236.416733 C 173.783188 234.998795 174.349625 233.639542 175.356674 232.641022 C 177.431473 230.579132 180.782349 230.579132 182.857147 232.641022 L 199.560303 249.339325 C 201.622803 251.413513 201.622803 254.763397 199.560303 256.837585 L 182.857147 273.535889 C 181.866333 274.518341 180.529022 275.072205 179.133514 275.078064 Z"/>
    <path id="path23" fill="#ffffff" stroke="none" d="M 131.790131 250.934677 C 130.387009 250.914703 129.04863 250.341293 128.066498 249.339325 L 111.363319 232.694183 C 110.356285 231.695679 109.789833 230.336456 109.789833 228.918488 C 109.789833 227.500549 110.356285 226.141266 111.363319 225.142761 L 128.332474 208.49765 C 130.443024 206.690735 133.589142 206.812195 135.553986 208.776489 C 137.518845 210.740784 137.640366 213.885956 135.832932 215.995911 L 122.906601 228.918488 L 135.832932 241.841034 C 137.895416 243.915237 137.895416 247.265106 135.832932 249.339325 C 134.774048 250.422348 133.303482 251.002655 131.790131 250.934677 Z"/>
</svg>
