<?xml version="1.0" encoding="UTF-8"?>
<!-- Generated by Pixelmator Pro 3.6 -->
<svg width="1502" height="1359" viewBox="0 0 1502 1359" xmlns="http://www.w3.org/2000/svg">
    <linearGradient id="linearGradient1" x1="1087.827153" y1="238.117342" x2="368.858215" y2="1436.098518" gradientUnits="userSpaceOnUse">
        <stop offset="0" stop-color="#2dfee0" stop-opacity="1"/>
        <stop offset="0.145059" stop-color="#9345fc" stop-opacity="1"/>
        <stop offset="0.277604" stop-color="#ff0ff5" stop-opacity="1"/>
        <stop offset="0.53285" stop-color="#feed56" stop-opacity="1"/>
        <stop offset="0.736494" stop-color="#fe10f5" stop-opacity="1"/>
        <stop offset="0.859369" stop-color="#9346fc" stop-opacity="1"/>
        <stop offset="1" stop-color="#2dfee0" stop-opacity="1"/>
    </linearGradient>
    <path id="Path-copy" fill="none" stroke="url(#linearGradient1)" stroke-width="18.113207" d="M 1374.509399 951.603638 C 1376.320923 944.358521 1378.13208 937.113281 1379.943481 929.868164 C 1459.641479 612.887024 1265.8302 236.131958 936.169861 38.69812 C 1081.075562 234.320557 1144.471802 471.603638 1088.320679 678.094116 C 1082.886719 696.207336 1077.452881 714.320557 1070.20752 732.433716 C 1062.96228 727 1053.905762 721.566284 1041.226563 716.131958 C 1041.226563 716.131958 713.37738 513.264343 358.358368 156.43396 C 349.301788 147.377319 548.547058 440.811523 773.151001 678.094116 C 666.282898 618.32074 371.037842 402.773682 182.660324 232.509644 C 206.20755 270.546997 233.377365 308.584839 262.358612 342.999756 C 418.132019 542.245056 622.81134 786.773376 867.3396 975.151123 C 695.26416 1080.20752 452.547272 1089.26416 211.641571 975.151123 C 151.86792 947.981323 95.716873 913.565796 43.188679 875.528564 C 144.622757 1038.547363 302.207611 1179.8302 494.207428 1263.151001 C 722.43396 1360.96228 950.660461 1355.528564 1119.113037 1264.962524 L 1119.113037 1264.962524 C 1119.113037 1264.962524 1120.924561 1264.962524 1120.924561 1263.151001 C 1128.169678 1259.528198 1135.415161 1254.094482 1142.660278 1250.471558 C 1224.1698 1208.811401 1383.56604 1167.150757 1470.509521 1333.79248 C 1495.86792 1371.830322 1541.150879 1154.471802 1374.509399 951.603638 C 1374.509399 951.603638 1374.509399 951.603638 1374.509399 951.603638 Z"/>
</svg>
