<?xml version="1.0" encoding="UTF-8"?>
<svg width="442px" height="496px" viewBox="0 0 442 496" version="1.1" xmlns="http://www.w3.org/2000/svg" xmlns:xlink="http://www.w3.org/1999/xlink">
    <title>apples</title>
    <g id="Page-1" stroke="none" stroke-width="1" fill="none" fill-rule="evenodd">
        <g id="apples" transform="translate(0.665127, 0.000000)" fill="#D8D8D8" fill-rule="nonzero">
            <g id="Group" transform="translate(-0.000000, 233.000000)">
                <g id="Group-2-Copy" transform="translate(229.000000, 0.000000)">
                    <path d="M169.423729,0 C171.661177,0 173.652829,0.974638889 174.769895,2.6 L210.334873,54.1666667 L209.981161,54.3651001 C209.897007,54.2453516 209.812094,54.12375 209.726693,54 L3.44906928,54 L38.8998507,2.6 C39.9703723,1.04236227 41.8441161,0.0823496335 43.9676614,0.00505281274 L44.2460167,0 Z" id="Combined-Shape"></path>
                    <path d="M209.065629,62 C210.429907,64.232 211.669746,65.844 211.669746,68.2 L211.669746,105.4 C211.669746,115.691587 203.360882,124 193.06596,124 L18.6037863,124 C8.30886436,124 0,115.691587 0,105.4 L0,68.2 C0,65.844 1.239839,64.232 2.60411666,62 L209.065629,62 Z M180.769053,85.25 C177.355857,85.25 174.588915,88.0258346 174.588915,91.45 C174.588915,94.8741654 177.355857,97.65 180.769053,97.65 C184.182249,97.65 186.949192,94.8741654 186.949192,91.45 C186.949192,88.0258346 184.182249,85.25 180.769053,85.25 Z M92.6081814,85.25 L29.4495553,85.25 C25.9816867,85.25 23.1755196,88.0230533 23.1755196,91.45 C23.1755196,94.8769467 25.9816867,97.65 29.4495553,97.65 L92.6081814,97.65 C96.0760501,97.65 98.8822171,94.8769467 98.8822171,91.45 C98.8822171,88.0230533 96.0760501,85.25 92.6081814,85.25 Z" id="Combined-Shape-Copy"></path>
                </g>
                <g id="Group-2-Copy-3" transform="translate(229.000000, 139.000000)">
                    <path d="M169.423729,0 C171.661177,0 173.652829,0.974638889 174.769895,2.6 L210.334873,54.1666667 L209.981161,54.3651001 C209.897007,54.2453516 209.812094,54.12375 209.726693,54 L3.44906928,54 L38.8998507,2.6 C39.9703723,1.04236227 41.8441161,0.0823496335 43.9676614,0.00505281274 L44.2460167,0 Z" id="Combined-Shape"></path>
                    <path d="M209.065629,62 C210.429907,64.232 211.669746,65.844 211.669746,68.2 L211.669746,105.4 C211.669746,115.691587 203.360882,124 193.06596,124 L18.6037863,124 C8.30886436,124 0,115.691587 0,105.4 L0,68.2 C0,65.844 1.239839,64.232 2.60411666,62 L209.065629,62 Z M180.769053,85.25 C177.355857,85.25 174.588915,88.0258346 174.588915,91.45 C174.588915,94.8741654 177.355857,97.65 180.769053,97.65 C184.182249,97.65 186.949192,94.8741654 186.949192,91.45 C186.949192,88.0258346 184.182249,85.25 180.769053,85.25 Z M92.6081814,85.25 L29.4495553,85.25 C25.9816867,85.25 23.1755196,88.0230533 23.1755196,91.45 C23.1755196,94.8769467 25.9816867,97.65 29.4495553,97.65 L92.6081814,97.65 C96.0760501,97.65 98.8822171,94.8769467 98.8822171,91.45 C98.8822171,88.0230533 96.0760501,85.25 92.6081814,85.25 Z" id="Combined-Shape-Copy"></path>
                </g>
                <g id="Group-2-Copy-2">
                    <path d="M169.423729,0 C171.661177,0 173.652829,0.974638889 174.769895,2.6 L210.334873,54.1666667 L209.981161,54.3651001 C209.897007,54.2453516 209.812094,54.12375 209.726693,54 L3.44906928,54 L38.8998507,2.6 C39.9703723,1.04236227 41.8441161,0.0823496335 43.9676614,0.00505281274 L44.2460167,0 Z" id="Combined-Shape"></path>
                    <path d="M209.065629,62 C210.429907,64.232 211.669746,65.844 211.669746,68.2 L211.669746,105.4 C211.669746,115.691587 203.360882,124 193.06596,124 L18.6037863,124 C8.30886436,124 0,115.691587 0,105.4 L0,68.2 C0,65.844 1.239839,64.232 2.60411666,62 L209.065629,62 Z M180.769053,85.25 C177.355857,85.25 174.588915,88.0258346 174.588915,91.45 C174.588915,94.8741654 177.355857,97.65 180.769053,97.65 C184.182249,97.65 186.949192,94.8741654 186.949192,91.45 C186.949192,88.0258346 184.182249,85.25 180.769053,85.25 Z M92.6081814,85.25 L29.4495553,85.25 C25.9816867,85.25 23.1755196,88.0230533 23.1755196,91.45 C23.1755196,94.8769467 25.9816867,97.65 29.4495553,97.65 L92.6081814,97.65 C96.0760501,97.65 98.8822171,94.8769467 98.8822171,91.45 C98.8822171,88.0230533 96.0760501,85.25 92.6081814,85.25 Z" id="Combined-Shape-Copy"></path>
                </g>
                <g id="Group-2-Copy-4" transform="translate(0.000000, 139.000000)">
                    <path d="M169.423729,0 C171.661177,0 173.652829,0.974638889 174.769895,2.6 L210.334873,54.1666667 L209.981161,54.3651001 C209.897007,54.2453516 209.812094,54.12375 209.726693,54 L3.44906928,54 L38.8998507,2.6 C39.9703723,1.04236227 41.8441161,0.0823496335 43.9676614,0.00505281274 L44.2460167,0 Z" id="Combined-Shape"></path>
                    <path d="M209.065629,62 C210.429907,64.232 211.669746,65.844 211.669746,68.2 L211.669746,105.4 C211.669746,115.691587 203.360882,124 193.06596,124 L18.6037863,124 C8.30886436,124 0,115.691587 0,105.4 L0,68.2 C0,65.844 1.239839,64.232 2.60411666,62 L209.065629,62 Z M180.769053,85.25 C177.355857,85.25 174.588915,88.0258346 174.588915,91.45 C174.588915,94.8741654 177.355857,97.65 180.769053,97.65 C184.182249,97.65 186.949192,94.8741654 186.949192,91.45 C186.949192,88.0258346 184.182249,85.25 180.769053,85.25 Z M92.6081814,85.25 L29.4495553,85.25 C25.9816867,85.25 23.1755196,88.0230533 23.1755196,91.45 C23.1755196,94.8769467 25.9816867,97.65 29.4495553,97.65 L92.6081814,97.65 C96.0760501,97.65 98.8822171,94.8769467 98.8822171,91.45 C98.8822171,88.0230533 96.0760501,85.25 92.6081814,85.25 Z" id="Combined-Shape-Copy"></path>
                </g>
            </g>
            <g id="Group-3" transform="translate(95.334873, 0.000000)">
                <path d="M249.872952,122.128309 C247.64296,116.826471 242.622457,113.477941 237.046082,113.477941 L181.273041,113.477941 L181.273041,13.9522059 C181.273041,6.13804044 175.138936,0 167.329781,0 L83.6702191,0 C75.8610638,0 69.7269588,6.13804044 69.7269588,13.9522059 L69.7269588,113.477941 L13.9539176,113.477941 C8.37754303,113.477941 3.35703977,116.826471 1.12704767,122.128309 C-1.10573308,127.430147 0.0106572969,133.289143 4.19456494,137.195761 L115.740647,248.813408 C118.249505,251.604779 121.874752,253 125.5,253 C129.125248,253 132.750495,251.604779 135.259353,248.813408 L246.805435,137.195761 C250.989343,133.289143 252.105733,127.430147 249.872952,122.128309 Z" id="Path"></path>
            </g>
        </g>
    </g>
</svg>