<svg clip-rule="evenodd" fill-rule="evenodd" height="512" stroke-linejoin="round" stroke-miterlimit="2" viewBox="0 0 32 32" width="512" xmlns="http://www.w3.org/2000/svg"><path d="m21.111 5.078c-.196-.73-.745-1.313-1.463-1.552-.717-.239-1.506-.102-2.101.366-3.238 2.544-9.741 7.656-9.741 7.656-.236.185-.339.494-.261.784l1.994 7.441c.077.29.321.505.618.548 0 0 8.188 1.175 12.264 1.76.748.107 1.501-.168 2.002-.734.502-.566.686-1.345.491-2.076-.958-3.576-2.845-10.617-3.803-14.193z"/><path d="m8.994 11.943c-.107-.4-.519-.637-.919-.53 0 0-1.866.5-3.388.908-.705.189-1.305.65-1.67 1.281-.365.632-.464 1.383-.275 2.087.295 1.101.664 2.476.959 3.577.188.705.649 1.306 1.281 1.67.632.365 1.382.464 2.087.275 1.522-.408 3.388-.908 3.388-.908.4-.107.638-.519.531-.919z"/><path d="m11.606 19.013c-.25-.035-.5.057-.668.245-.167.189-.228.449-.163.692l.99 3.697c.101.376.473.612.856.544.099-.018.199-.04.298-.066 1.787-.479 2.884-2.254 2.551-4.042-.059-.316-.313-.56-.631-.606zm1.4 3.468-.488-1.821 1.505.216c-.05.666-.43 1.273-1.017 1.605z"/><path d="m12.224 19.562c-.078-.29-.321-.506-.618-.549l-1.236-.177c-.101-.014-.203-.008-.301.018l-2.611.7c-.207.055-.381.196-.477.388-.096.191-.105.415-.026.614 0 0 1.693 4.25 2.555 6.414.421 1.057 1.566 1.631 2.665 1.337 1.233-.33 1.964-1.597 1.634-2.829z"/><path d="m28.914 10.077-2.901.777c-.399.107-.637.519-.53.919s.519.637.919.53l2.9-.777c.4-.107.638-.519.531-.919s-.519-.637-.919-.53z"/><path d="m26 4.629-2.414 1.786c-.332.246-.403.716-.157 1.049.247.333.717.403 1.049.157l2.415-1.786c.332-.246.403-.716.156-1.049-.246-.333-.716-.403-1.049-.157z"/><path d="m29.593 16.236-2.978-.386c-.411-.053-.787.237-.84.647-.054.411.237.787.647.841l2.978.386c.411.053.787-.237.84-.648.054-.41-.237-.787-.647-.84z"/></svg>