<svg id="Layer_1" height="512" viewBox="0 0 256 256" width="512" xmlns="http://www.w3.org/2000/svg"><g><g><g><g><g><path d="m206.766 115.505-10.327-4.918-.001 19.126c0 2.244 1.819 4.063 4.062 4.063h6.265z" fill="#58595b"/></g><g><path d="m206.766 115.505-16.682-7.945.001-8.143 16.681 7.945z" fill="#939598"/></g></g><g><g><path d="m150.894 115.501-.001 18.271h6.265c2.244 0 4.063-1.819 4.063-4.062l.001-19.126z" fill="#58595b"/></g><g><path d="m150.894 115.501 16.683-7.943v-8.142l-16.682 7.943z" fill="#939598"/></g></g><g><path d="m184.5 117.423-11.341-.001c-3.084 0-5.583-2.5-5.583-5.584l.001-12.423 22.508.001-.001 12.423c0 3.085-2.5 5.584-5.584 5.584z" fill="#d1d3d4"/></g><g><path d="m178.83 88.558c-1.738 0-3.393-.356-4.897-.998l-.001 11.856 9.797.001.001-11.859c-1.504.643-3.16 1-4.9 1z" fill="#939598"/></g></g><path d="m149.626 30.852c.009 5.915-2.424 11.803-7.227 16.002l-17.953 15.697 42.229 16.369c-.216-.919-.341-1.873-.341-2.858 0-6.902 5.595-12.497 12.497-12.497.526 0 1.041.043 1.551.106z" fill="#f79219"/><path d="m167.116 71.741-36.846-14.283-5.824 5.092 42.229 16.369c-.215-.919-.341-1.873-.341-2.858-.001-1.521.284-2.972.782-4.32z" fill="#ef7816"/><g><path d="m144.405 16.938c-7.707-8.815-21.101-9.714-29.916-2.006l-59.35 51.89c15.55.47 28.013 13.215 28.013 28.879 0 1.048-.059 2.081-.168 3.1l59.415-51.946c8.815-7.708 9.714-21.102 2.006-29.917z" fill="#ffc91d"/></g><g><path d="m144.405 16.938c-1.106-1.265-2.338-2.347-3.647-3.283 6.209 8.762 4.901 20.978-3.359 28.199l-54.85 47.955c.394 1.902.603 3.872.603 5.891 0 1.048-.059 2.081-.168 3.1l59.415-51.946c8.815-7.707 9.714-21.101 2.006-29.916z" fill="#ffa91a"/></g><g><path d="m155.768 246.309h-141.072c-5.523 0-10-4.477-10-10v-27.006c0-5.523 4.477-10 10-10h141.073c5.523 0 10 4.477 10 10v27.006c-.001 5.523-4.478 10-10.001 10z" fill="#893add"/></g><g><circle cx="22.911" cy="221.655" fill="#d1d3d4" r="5.167"/></g><g><circle cx="42.911" cy="221.655" fill="#d1d3d4" r="5.167"/></g><g><circle cx="62.911" cy="221.655" fill="#d1d3d4" r="5.167"/></g><g><circle cx="82.911" cy="221.655" fill="#d1d3d4" r="5.167"/></g><g><path d="m159.878 200.194c.567 1.255.89 2.643.89 4.11v27.005c0 5.523-4.477 10-10 10h-141.072c-1.466 0-2.855-.323-4.11-.891 1.569 3.471 5.053 5.891 9.11 5.891h141.073c5.523 0 10-4.477 10-10v-27.005c-.001-4.057-2.42-7.542-5.891-9.11z" fill="#6c2bc1"/></g><g><g><path d="m83.152 95.7c0 15.962-12.94 28.901-28.901 28.901s-28.901-12.939-28.901-28.901v103.604h57.803z" fill="#f79219"/></g><g><path d="m83.152 95.7c0 6.025-1.846 11.618-5 16.249v77.354c0 2.761-2.239 5-5 5h-47.803v5h57.803z" fill="#ef7816"/></g></g><g><circle cx="54.251" cy="95.7" fill="#58595b" r="28.901"/></g><g><circle cx="54.251" cy="95.7" fill="#58595b" r="28.901"/></g><g><circle cx="54.251" cy="95.7" fill="#939598" r="13.502"/></g><g><circle cx="127.602" cy="31.629" fill="#58595b" r="12.5"/></g><g><circle cx="127.602" cy="31.629" fill="#939598" r="5"/></g><g><circle cx="178.83" cy="76.061" fill="#58595b" r="12.497"/></g><g><circle cx="178.83" cy="76.061" fill="#939598" r="5"/></g></g><g><g><g><g><g><g><path d="m238.747 229.09v-77.329c0-2.761-2.239-5-5-5h-109.112c-2.761 0-5 2.239-5 5v77.329z" fill="#58595b"/></g><g><path d="m233.747 146.761v72.329c0 2.761-2.239 5-5 5h-109.112v5h119.112v-77.329c0-2.762-2.239-5-5-5z" fill="#414042"/></g><g><circle cx="179.191" cy="152.265" fill="#939598" r="2.203"/></g><g><path d="m229.917 229.09v-66.226c0-2.761-2.239-5-5-5h-91.451c-2.761 0-5 2.239-5 5v66.226z" fill="#478cf7"/></g><g><g><path d="m213.392 173.78h-30.415c-1.104 0-2-.896-2-2s.896-2 2-2h30.415c1.104 0 2 .896 2 2s-.896 2-2 2z" fill="#fff"/></g><g><path d="m172.036 173.78h-27.045c-1.104 0-2-.896-2-2s.896-2 2-2h27.045c1.104 0 2 .896 2 2s-.895 2-2 2z" fill="#fff"/></g><g><path d="m213.392 186.543h-59.284c-1.104 0-2-.896-2-2s.896-2 2-2h59.284c1.104 0 2 .896 2 2s-.896 2-2 2z" fill="#fff"/></g><g><path d="m213.392 199.307h-25.697c-1.104 0-2-.896-2-2s.896-2 2-2h25.697c1.104 0 2 .896 2 2s-.896 2-2 2z" fill="#fff"/></g><g><path d="m176.595 199.307h-22.487c-1.104 0-2-.896-2-2s.896-2 2-2h22.487c1.104 0 2 .896 2 2s-.896 2-2 2z" fill="#fff"/></g><g><path d="m213.392 212.071h-36.797c-1.104 0-2-.896-2-2s.896-2 2-2h36.797c1.104 0 2 .896 2 2s-.896 2-2 2z" fill="#fff"/></g><g><path d="m169.301 212.071h-24.311c-1.104 0-2-.896-2-2s.896-2 2-2h24.311c1.104 0 2 .896 2 2s-.895 2-2 2z" fill="#fff"/></g></g><g><path d="m134.465 215.593c-1.104 0-2-.896-2-2v-40c0-1.104.896-2 2-2s2 .896 2 2v40c0 1.105-.895 2-2 2zm0-48c-1.104 0-2-.896-2-2v-1c0-1.104.896-2 2-2s2 .896 2 2v1c0 1.105-.895 2-2 2z" fill="#5e9cf7"/></g><g><path d="m224.917 157.864h-5v56.226c0 2.761-2.239 5-5 5h-86.451v10h101.451v-66.226c0-2.761-2.239-5-5-5z" fill="#377de2"/></g><g><path d="m224.917 157.864v61.226c0 2.761-2.239 5-5 5h-91.451v5h101.451v-66.226c0-2.761-2.239-5-5-5z" fill="#2266d3"/></g><g><path d="m107.078 231.09v10.219c0 2.761 2.239 5 5 5h134.227c2.761 0 5-2.239 5-5v-10.219c0-1.105-.895-2-2-2h-140.227c-1.105 0-2 .895-2 2z" fill="#939598"/></g><g><path d="m249.304 229.09h-3v7.219c0 2.761-2.239 5-5 5h-134.226c0 2.761 2.239 5 5 5h134.227c2.761 0 5-2.239 5-5v-10.219c-.001-1.105-.896-2-2.001-2z" fill="#808285"/></g><g><path d="m155.255 229.09v3.277c0 1.659 1.345 3.005 3.005 3.005h41.863c1.659 0 3.005-1.345 3.005-3.005v-3.277z" fill="#414042"/></g></g></g></g></g></g></g></svg>