<?xml version="1.0" encoding="UTF-8"?>
<!-- Generated by Pixelmator Pro 3.6.13 -->
<svg width="1125" height="1089" viewBox="0 0 1125 1089" xmlns="http://www.w3.org/2000/svg">
    <g id="Logo">
        <g id="Grid-copy" opacity="0.016767">
            <path id="Path" fill="none" stroke="#000000" stroke-width="4.196721" stroke-opacity="0.75" d="M 859.819702 87.459045 L 859.819702 119.983582 L 827.295105 119.983582 L 827.295105 87.459045 L 859.819702 87.459045 Z"/>
            <path id="path1" fill="none" stroke="#000000" stroke-width="4.196721" stroke-opacity="0.75" d="M 859.819702 234.344238 L 859.819702 266.868835 L 827.295105 266.868835 L 827.295105 234.344238 L 859.819702 234.344238 Z"/>
            <path id="Oval" fill="none" stroke="#000000" stroke-width="4.196721" stroke-opacity="0.75" d="M 173.655731 176.114746 C 173.655731 185.096191 166.374863 192.377075 157.393448 192.377075 C 148.412033 192.377075 141.131149 185.096191 141.131149 176.114746 C 141.131149 167.133301 148.412033 159.852478 157.393448 159.852478 C 166.374863 159.852478 173.655731 167.133301 173.655731 176.114746 Z"/>
            <path id="path2" fill="none" stroke="#000000" stroke-width="4.196721" stroke-opacity="0.75" d="M 249.196716 176.114746 C 249.196716 185.096191 241.915863 192.377075 232.934433 192.377075 C 223.953003 192.377075 216.672134 185.096191 216.672134 176.114746 C 216.672134 167.133301 223.953003 159.852478 232.934433 159.852478 C 241.915863 159.852478 249.196716 167.133301 249.196716 176.114746 Z"/>
            <path id="path3" fill="none" stroke="#000000" stroke-width="4.196721" stroke-opacity="0.75" d="M 562.901611 159.852478 L 562.901611 192.377075 L 325.786896 192.377075 L 325.786896 159.852478 L 562.901611 159.852478 Z"/>
            <path id="path4" fill="none" stroke="#000000" stroke-width="4.196721" stroke-opacity="0.75" d="M 859.819702 456.770508 L 859.819702 489.295105 L 827.295105 489.295105 L 827.295105 456.770508 L 859.819702 456.770508 Z"/>
            <path id="path5" fill="none" stroke="#000000" stroke-width="4.196721" stroke-opacity="0.75" d="M 859.819702 604.704956 L 859.819702 637.229492 L 827.295105 637.229492 L 827.295105 604.704956 L 859.819702 604.704956 Z"/>
            <path id="path6" fill="none" stroke="#000000" stroke-width="4.196721" stroke-opacity="0.75" d="M 173.655731 546.475403 C 173.655731 555.456848 166.374863 562.737732 157.393448 562.737732 C 148.412033 562.737732 141.131149 555.456848 141.131149 546.475403 C 141.131149 537.493958 148.412033 530.213135 157.393448 530.213135 C 166.374863 530.213135 173.655731 537.493958 173.655731 546.475403 Z"/>
            <path id="path7" fill="none" stroke="#000000" stroke-width="4.196721" stroke-opacity="0.75" d="M 249.196716 546.475403 C 249.196716 555.456848 241.915863 562.737732 232.934433 562.737732 C 223.953003 562.737732 216.672134 555.456848 216.672134 546.475403 C 216.672134 537.493958 223.953003 530.213135 232.934433 530.213135 C 241.915863 530.213135 249.196716 537.493958 249.196716 546.475403 Z"/>
            <path id="path8" fill="none" stroke="#000000" stroke-width="4.196721" stroke-opacity="0.75" d="M 562.901611 530.213135 L 562.901611 562.737732 L 325.786896 562.737732 L 325.786896 530.213135 L 562.901611 530.213135 Z"/>
            <path id="Shape" fill="none" stroke="#000000" stroke-width="4.196721" stroke-opacity="0.75" d="M 1101.515869 12.967163 C 1105.865723 12.967163 1110.037354 14.697388 1113.113159 17.776855 C 1116.189941 20.857544 1117.918091 25.035767 1117.918091 29.392334 L 1117.918091 325.7677 C 1117.918091 330.124207 1116.189941 334.302429 1113.113159 337.383057 C 1110.037354 340.462585 1105.865723 342.192871 1101.515869 342.192749 L 988.414185 342.192749 L 988.414185 383.436401 L 1101.515869 383.436401 C 1105.865723 383.436279 1110.037354 385.166504 1113.113159 388.246155 C 1116.189941 391.326721 1117.918091 395.505005 1117.918091 399.861511 L 1117.918091 696.236877 C 1117.918091 700.593384 1116.189941 704.771606 1113.113159 707.852173 C 1110.037354 710.931763 1105.865723 712.662109 1101.515869 712.661987 L 988.414185 712.661987 L 988.414185 753.90564 L 1101.515869 753.90564 C 1105.865723 753.905518 1110.037354 755.635742 1113.113159 758.715332 C 1116.189941 761.795898 1117.918091 765.974182 1117.918091 770.330688 L 1117.918091 1066.706055 C 1117.918091 1071.062622 1116.189941 1075.240845 1113.113159 1078.321411 C 1110.037354 1081.401001 1105.865723 1083.131104 1101.515869 1083.131104 L 28.48415 1083.131104 C 24.13427 1083.131104 19.96261 1081.401001 16.886814 1078.321411 C 13.810051 1075.240845 12.081967 1071.062622 12.081967 1066.706055 L 12.081967 770.330688 C 12.081967 765.974182 13.810051 761.795898 16.886814 758.715332 C 19.962595 755.635742 24.134222 753.905518 28.48415 753.90564 L 123.085251 753.90564 L 123.085251 712.661987 L 28.484095 712.661987 C 24.134222 712.662109 19.962595 710.931763 16.886814 707.852173 C 13.810051 704.771606 12.081967 700.593384 12.081967 696.236877 L 12.081967 399.861511 C 12.081967 395.505005 13.810051 391.326721 16.886814 388.246155 C 19.962595 385.166504 24.134222 383.436279 28.48415 383.436401 L 123.085251 383.436401 L 123.085251 342.192749 L 28.484095 342.192749 C 24.134222 342.192871 19.962595 340.462585 16.886814 337.383057 C 13.810051 334.302429 12.081967 330.124207 12.081967 325.7677 L 12.081967 29.392334 C 12.081967 25.035767 13.810051 20.857544 16.886814 17.776855 C 19.96261 14.697388 24.13427 12.967163 28.48415 12.967163 L 1101.515869 12.967163 Z M 1083.837769 786.64093 L 44.498024 786.64093 L 44.498024 827.958435 L 783.885864 827.958435 L 783.885864 860.882446 L 44.498024 860.882446 L 44.498024 976.441467 L 783.885864 976.441467 L 783.885864 1009.36554 L 44.498024 1009.36554 L 44.498024 1050.682983 L 1083.837769 1050.682983 L 1083.837769 1009.36554 L 898.990784 1009.36554 L 898.990784 976.441467 L 1083.837769 976.441467 L 1083.837769 860.882446 L 898.990784 860.882446 L 898.990784 827.958435 L 1083.837769 827.958435 L 1083.837769 786.64093 Z M 955.693054 713.351196 L 914.883606 713.351196 L 914.883606 754.192749 L 955.693054 754.192749 L 955.693054 713.351196 Z M 880.803284 713.351196 L 229.22612 713.351196 L 229.22612 754.192749 L 880.803284 754.192749 L 880.803284 713.351196 Z M 196.810074 713.351196 L 156.000565 713.351196 L 156.000565 754.192749 L 196.810074 754.192749 L 196.810074 713.351196 Z M 1083.837769 415.195313 L 44.498024 415.195313 L 44.498024 456.512817 L 783.885864 456.512817 L 783.885864 489.43689 L 44.498024 489.43689 L 44.498024 604.99585 L 783.885864 604.99585 L 783.885864 637.919922 L 44.498024 637.919922 L 44.498024 679.237427 L 1083.837769 679.237427 L 1083.837769 637.919922 L 898.990784 637.919922 L 898.990784 604.99585 L 1083.837769 604.99585 L 1083.837769 489.43689 L 898.990784 489.43689 L 898.990784 456.512817 L 1083.837769 456.512817 L 1083.837769 415.195313 Z M 955.693054 341.90564 L 914.883606 341.90564 L 914.883606 382.747192 L 955.693054 382.747192 L 955.693054 341.90564 Z M 880.803284 341.90564 L 229.22612 341.90564 L 229.22612 382.747192 L 880.803284 382.747192 L 880.803284 341.90564 Z M 196.810074 341.90564 L 156.000565 341.90564 L 156.000565 382.747192 L 196.810074 382.747192 L 196.810074 341.90564 Z M 1083.837769 45.415283 L 44.498024 45.415283 L 44.498024 86.732849 L 783.885864 86.732849 L 783.885864 119.65686 L 44.498024 119.65686 L 44.498024 235.215942 L 783.885864 235.215942 L 783.885864 268.140015 L 44.498024 268.140015 L 44.498024 309.457458 L 1083.837769 309.457458 L 1083.837769 268.140015 L 898.990784 268.140015 L 898.990784 235.215942 L 1083.837769 235.215942 L 1083.837769 119.65686 L 898.990784 119.65686 L 898.990784 86.732849 L 1083.837769 86.732849 L 1083.837769 45.415283 Z"/>
            <path id="path9" fill="none" stroke="#000000" stroke-width="4.196721" stroke-opacity="0.75" d="M 859.819702 826.08197 L 859.819702 858.606567 L 827.295105 858.606567 L 827.295105 826.08197 L 859.819702 826.08197 Z"/>
            <path id="path10" fill="none" stroke="#000000" stroke-width="4.196721" stroke-opacity="0.75" d="M 859.819702 975.065552 L 859.819702 1007.590149 L 827.295105 1007.590149 L 827.295105 975.065552 L 859.819702 975.065552 Z"/>
            <path id="path11" fill="none" stroke="#000000" stroke-width="4.196721" stroke-opacity="0.75" d="M 173.655731 917.885254 C 173.655731 926.866699 166.374863 934.147522 157.393448 934.147522 C 148.412033 934.147522 141.131149 926.866699 141.131149 917.885254 C 141.131149 908.903809 148.412033 901.622925 157.393448 901.622925 C 166.374863 901.622925 173.655731 908.903809 173.655731 917.885254 Z"/>
            <path id="path12" fill="none" stroke="#000000" stroke-width="4.196721" stroke-opacity="0.75" d="M 249.196716 917.885254 C 249.196716 926.866699 241.915863 934.147522 232.934433 934.147522 C 223.953003 934.147522 216.672134 926.866699 216.672134 917.885254 C 216.672134 908.903809 223.953003 901.622925 232.934433 901.622925 C 241.915863 901.622925 249.196716 908.903809 249.196716 917.885254 Z"/>
            <path id="path13" fill="none" stroke="#000000" stroke-width="4.196721" stroke-opacity="0.75" d="M 562.901611 901.622925 L 562.901611 934.147522 L 325.786896 934.147522 L 325.786896 901.622925 L 562.901611 901.622925 Z"/>
        </g>
        <g id="Grid">
            <path id="path14" fill="none" stroke="#ffffff" stroke-width="4.196721" stroke-opacity="0.75" d="M 853.819702 81.459045 L 853.819702 113.983582 L 821.295105 113.983582 L 821.295105 81.459045 L 853.819702 81.459045 Z"/>
            <path id="path15" fill="none" stroke="#ffffff" stroke-width="4.196721" stroke-opacity="0.75" d="M 853.819702 228.344238 L 853.819702 260.868835 L 821.295105 260.868835 L 821.295105 228.344238 L 853.819702 228.344238 Z"/>
            <path id="path16" fill="none" stroke="#ffffff" stroke-width="4.196721" stroke-opacity="0.75" d="M 167.655731 170.114746 C 167.655731 179.096191 160.374863 186.377075 151.393448 186.377075 C 142.412033 186.377075 135.131149 179.096191 135.131149 170.114746 C 135.131149 161.133301 142.412033 153.852478 151.393448 153.852478 C 160.374863 153.852478 167.655731 161.133301 167.655731 170.114746 Z"/>
            <path id="path17" fill="none" stroke="#ffffff" stroke-width="4.196721" stroke-opacity="0.75" d="M 243.196716 170.114746 C 243.196716 179.096191 235.915863 186.377075 226.934433 186.377075 C 217.953003 186.377075 210.672134 179.096191 210.672134 170.114746 C 210.672134 161.133301 217.953003 153.852478 226.934433 153.852478 C 235.915863 153.852478 243.196716 161.133301 243.196716 170.114746 Z"/>
            <path id="path18" fill="none" stroke="#ffffff" stroke-width="4.196721" stroke-opacity="0.75" d="M 556.901611 153.852478 L 556.901611 186.377075 L 319.786896 186.377075 L 319.786896 153.852478 L 556.901611 153.852478 Z"/>
            <path id="path19" fill="none" stroke="#ffffff" stroke-width="4.196721" stroke-opacity="0.75" d="M 853.819702 450.770508 L 853.819702 483.295105 L 821.295105 483.295105 L 821.295105 450.770508 L 853.819702 450.770508 Z"/>
            <path id="path20" fill="none" stroke="#ffffff" stroke-width="4.196721" stroke-opacity="0.75" d="M 853.819702 598.704956 L 853.819702 631.229492 L 821.295105 631.229492 L 821.295105 598.704956 L 853.819702 598.704956 Z"/>
            <path id="path21" fill="none" stroke="#ffffff" stroke-width="4.196721" stroke-opacity="0.75" d="M 167.655731 540.475403 C 167.655731 549.456848 160.374863 556.737732 151.393448 556.737732 C 142.412033 556.737732 135.131149 549.456848 135.131149 540.475403 C 135.131149 531.493958 142.412033 524.213135 151.393448 524.213135 C 160.374863 524.213135 167.655731 531.493958 167.655731 540.475403 Z"/>
            <path id="path22" fill="none" stroke="#ffffff" stroke-width="4.196721" stroke-opacity="0.75" d="M 243.196716 540.475403 C 243.196716 549.456848 235.915863 556.737732 226.934433 556.737732 C 217.953003 556.737732 210.672134 549.456848 210.672134 540.475403 C 210.672134 531.493958 217.953003 524.213135 226.934433 524.213135 C 235.915863 524.213135 243.196716 531.493958 243.196716 540.475403 Z"/>
            <path id="path23" fill="none" stroke="#ffffff" stroke-width="4.196721" stroke-opacity="0.75" d="M 556.901611 524.213135 L 556.901611 556.737732 L 319.786896 556.737732 L 319.786896 524.213135 L 556.901611 524.213135 Z"/>
            <path id="path24" fill="none" stroke="#ffffff" stroke-width="4.196721" stroke-opacity="0.75" d="M 1095.515869 6.967163 C 1099.865723 6.967163 1104.037354 8.697388 1107.113159 11.776855 C 1110.189941 14.857544 1111.918091 19.035767 1111.918091 23.392334 L 1111.918091 319.7677 C 1111.918091 324.124207 1110.189941 328.302429 1107.113159 331.383057 C 1104.037354 334.462585 1099.865723 336.192871 1095.515869 336.192749 L 982.414185 336.192749 L 982.414185 377.436401 L 1095.515869 377.436401 C 1099.865723 377.436279 1104.037354 379.166504 1107.113159 382.246155 C 1110.189941 385.326721 1111.918091 389.505005 1111.918091 393.861511 L 1111.918091 690.236877 C 1111.918091 694.593384 1110.189941 698.771606 1107.113159 701.852173 C 1104.037354 704.931763 1099.865723 706.662109 1095.515869 706.661987 L 982.414185 706.661987 L 982.414185 747.90564 L 1095.515869 747.90564 C 1099.865723 747.905518 1104.037354 749.635742 1107.113159 752.715332 C 1110.189941 755.795898 1111.918091 759.974182 1111.918091 764.330688 L 1111.918091 1060.706055 C 1111.918091 1065.062622 1110.189941 1069.240845 1107.113159 1072.321411 C 1104.037354 1075.401001 1099.865723 1077.131104 1095.515869 1077.131104 L 22.48415 1077.131104 C 18.13427 1077.131104 13.96261 1075.401001 10.886815 1072.321411 C 7.81005 1069.240845 6.081967 1065.062622 6.081967 1060.706055 L 6.081967 764.330688 C 6.081967 759.974182 7.81005 755.795898 10.886815 752.715332 C 13.962594 749.635742 18.134222 747.905518 22.48415 747.90564 L 117.085251 747.90564 L 117.085251 706.661987 L 22.484095 706.661987 C 18.134222 706.662109 13.962594 704.931763 10.886815 701.852173 C 7.81005 698.771606 6.081967 694.593384 6.081967 690.236877 L 6.081967 393.861511 C 6.081967 389.505005 7.81005 385.326721 10.886815 382.246155 C 13.962594 379.166504 18.134222 377.436279 22.48415 377.436401 L 117.085251 377.436401 L 117.085251 336.192749 L 22.484095 336.192749 C 18.134222 336.192871 13.962594 334.462585 10.886815 331.383057 C 7.81005 328.302429 6.081967 324.124207 6.081967 319.7677 L 6.081967 23.392334 C 6.081967 19.035767 7.81005 14.857544 10.886815 11.776855 C 13.96261 8.697388 18.13427 6.967163 22.48415 6.967163 L 1095.515869 6.967163 Z M 1077.837769 780.64093 L 38.498024 780.64093 L 38.498024 821.958435 L 777.885864 821.958435 L 777.885864 854.882446 L 38.498024 854.882446 L 38.498024 970.441467 L 777.885864 970.441467 L 777.885864 1003.36554 L 38.498024 1003.36554 L 38.498024 1044.682983 L 1077.837769 1044.682983 L 1077.837769 1003.36554 L 892.990784 1003.36554 L 892.990784 970.441467 L 1077.837769 970.441467 L 1077.837769 854.882446 L 892.990784 854.882446 L 892.990784 821.958435 L 1077.837769 821.958435 L 1077.837769 780.64093 Z M 949.693054 707.351196 L 908.883606 707.351196 L 908.883606 748.192749 L 949.693054 748.192749 L 949.693054 707.351196 Z M 874.803284 707.351196 L 223.22612 707.351196 L 223.22612 748.192749 L 874.803284 748.192749 L 874.803284 707.351196 Z M 190.810074 707.351196 L 150.000565 707.351196 L 150.000565 748.192749 L 190.810074 748.192749 L 190.810074 707.351196 Z M 1077.837769 409.195313 L 38.498024 409.195313 L 38.498024 450.512817 L 777.885864 450.512817 L 777.885864 483.43689 L 38.498024 483.43689 L 38.498024 598.99585 L 777.885864 598.99585 L 777.885864 631.919922 L 38.498024 631.919922 L 38.498024 673.237427 L 1077.837769 673.237427 L 1077.837769 631.919922 L 892.990784 631.919922 L 892.990784 598.99585 L 1077.837769 598.99585 L 1077.837769 483.43689 L 892.990784 483.43689 L 892.990784 450.512817 L 1077.837769 450.512817 L 1077.837769 409.195313 Z M 949.693054 335.90564 L 908.883606 335.90564 L 908.883606 376.747192 L 949.693054 376.747192 L 949.693054 335.90564 Z M 874.803284 335.90564 L 223.22612 335.90564 L 223.22612 376.747192 L 874.803284 376.747192 L 874.803284 335.90564 Z M 190.810074 335.90564 L 150.000565 335.90564 L 150.000565 376.747192 L 190.810074 376.747192 L 190.810074 335.90564 Z M 1077.837769 39.415283 L 38.498024 39.415283 L 38.498024 80.732849 L 777.885864 80.732849 L 777.885864 113.65686 L 38.498024 113.65686 L 38.498024 229.215942 L 777.885864 229.215942 L 777.885864 262.140015 L 38.498024 262.140015 L 38.498024 303.457458 L 1077.837769 303.457458 L 1077.837769 262.140015 L 892.990784 262.140015 L 892.990784 229.215942 L 1077.837769 229.215942 L 1077.837769 113.65686 L 892.990784 113.65686 L 892.990784 80.732849 L 1077.837769 80.732849 L 1077.837769 39.415283 Z"/>
            <path id="path25" fill="none" stroke="#ffffff" stroke-width="4.196721" stroke-opacity="0.75" d="M 853.819702 820.08197 L 853.819702 852.606567 L 821.295105 852.606567 L 821.295105 820.08197 L 853.819702 820.08197 Z"/>
            <path id="path26" fill="none" stroke="#ffffff" stroke-width="4.196721" stroke-opacity="0.75" d="M 853.819702 969.065552 L 853.819702 1001.590149 L 821.295105 1001.590149 L 821.295105 969.065552 L 853.819702 969.065552 Z"/>
            <path id="path27" fill="none" stroke="#ffffff" stroke-width="4.196721" stroke-opacity="0.75" d="M 167.655731 911.885254 C 167.655731 920.866699 160.374863 928.147522 151.393448 928.147522 C 142.412033 928.147522 135.131149 920.866699 135.131149 911.885254 C 135.131149 902.903809 142.412033 895.622925 151.393448 895.622925 C 160.374863 895.622925 167.655731 902.903809 167.655731 911.885254 Z"/>
            <path id="path28" fill="none" stroke="#ffffff" stroke-width="4.196721" stroke-opacity="0.75" d="M 243.196716 911.885254 C 243.196716 920.866699 235.915863 928.147522 226.934433 928.147522 C 217.953003 928.147522 210.672134 920.866699 210.672134 911.885254 C 210.672134 902.903809 217.953003 895.622925 226.934433 895.622925 C 235.915863 895.622925 243.196716 902.903809 243.196716 911.885254 Z"/>
            <path id="path29" fill="none" stroke="#ffffff" stroke-width="4.196721" stroke-opacity="0.75" d="M 556.901611 895.622925 L 556.901611 928.147522 L 319.786896 928.147522 L 319.786896 895.622925 L 556.901611 895.622925 Z"/>
        </g>
        <g id="Group">
            <filter id="filter1" x="0" y="0" width="1125" height="1089" filterUnits="userSpaceOnUse" primitiveUnits="userSpaceOnUse" color-interpolation-filters="sRGB">
                <feGaussianBlur stdDeviation="10"/>
            </filter>
            <path id="Shadow" fill="#000000" stroke="none" opacity="0.5" filter="url(#filter1)" d="M 1024.022339 549.261841 L 1024.022339 484.087341 C 1024.022339 467.53009 1011.169739 453.983887 994.877258 452.84729 C 994.143311 452.795776 993.402405 452.769531 992.655396 452.769531 L 892.045776 452.769531 C 917.487305 377.606689 914.038635 286.463562 863.710205 245.401123 C 827.176758 215.571411 774.367065 218.632446 738.616882 225.448975 C 735.345093 226.077942 732.071228 226.60968 728.799377 227.046448 C 733.397095 215.254883 740.255066 205.025879 749.429688 196.458618 C 755.745178 190.565918 756.064697 180.696594 750.139282 174.415955 C 744.213806 168.135315 734.289795 167.819519 727.974243 173.710327 C 712.971497 187.698486 702.753418 204.680786 696.812317 223.581177 C 696.31488 225.152954 695.852295 226.721008 695.422607 228.283081 C 687.700073 227.832764 680.070129 226.877563 672.5896 225.448975 C 644.33197 220.065491 605.452209 217.023376 572.356506 230.689514 C 564.488403 227.440857 556.293213 225.13623 547.991699 223.582764 C 545.355591 222.422363 542.407349 221.602478 539.149597 221.205383 C 513.335571 218.058228 495.171021 221.002075 477.284637 223.900879 C 472.442719 224.685608 467.621216 225.46698 462.673889 226.123352 C 467.266541 214.720337 474.00415 204.801575 482.938599 196.458618 C 489.25415 190.565918 489.571716 180.698608 483.648193 174.415955 C 477.722656 168.135315 467.798462 167.819519 461.48288 173.710327 C 446.47995 187.698486 436.261749 204.680786 430.320526 223.581177 C 429.904114 224.896912 429.512146 226.209961 429.143463 227.519104 C 422.253326 227.090881 414.815704 226.18103 406.618835 224.613098 C 350.504944 213.904541 310.706909 222.66156 283.844452 243.172241 C 282.887482 243.893921 281.940613 244.636719 281.004425 245.401123 C 276.169983 249.345459 271.769623 253.743103 267.786621 258.536743 C 246.009842 284.504028 237.003189 320.992065 237.138535 359.724243 C 237.032486 390.510681 242.636353 422.906433 252.739059 452.769531 L 145.738403 452.769531 L 145.663376 452.769653 C 128.386795 452.769531 114.382942 466.710388 114.382942 483.90918 L 114.382942 549.261841 C 114.382942 566.6698 128.419617 580.769531 145.749802 580.769531 L 180.481308 580.769531 C 183.887421 596.770569 186.920074 611.061646 189.659439 623.975098 C 190.043945 625.786743 190.732544 627.468933 191.664825 628.9729 C 198.47084 660.92749 203.436768 684.24292 207.767609 704.572754 L 207.759995 704.572754 L 229.677643 807.392456 L 229.681839 807.392456 C 234.721573 831.029297 240.889328 859.953613 249.084076 898.383057 C 255.239822 927.312866 280.823425 947.982666 310.425903 947.982666 L 828.351807 947.982666 C 857.973877 947.982666 883.537903 927.312866 889.713257 898.383057 C 944.517456 641.315796 895.779236 869.810303 957.399292 580.769531 L 992.655396 580.769531 C 1009.985657 580.769531 1024.022339 566.6698 1024.022339 549.261841 Z"/>
            <g id="Apples">
                <path id="path30" fill="#fe4f60" stroke="none" d="M 451.141449 191.875183 C 486.891663 185.058655 539.701355 181.99762 576.234802 211.827332 C 669.435608 287.868835 601.86908 535.654785 487.780609 535.654785 C 474.063721 535.654785 456.330566 532.539124 434.455933 522.218689 C 424.09726 517.331604 412.156372 517.331604 401.797699 522.218689 C 378.002106 533.44635 351.545349 539.697083 326.386841 532.716614 C 227.752243 505.206604 172.099258 283.561218 260.020813 211.827332 C 296.55423 181.99762 349.344391 185.060608 385.114136 191.875183 C 406.35434 195.931152 428.796844 196.171143 451.141449 191.875183 Z"/>
                <path id="path31" fill="#fe4f60" stroke="none" d="M 717.63324 191.875183 C 753.383423 185.058655 806.193115 181.99762 842.726624 211.827332 C 935.927368 287.868835 868.360901 535.654785 754.272461 535.654785 C 740.555542 535.654785 722.822449 532.539124 700.947754 522.218689 C 690.58905 517.331604 678.648193 517.331604 668.28949 522.218689 C 644.493896 533.44635 618.03717 539.697083 592.878723 532.716614 C 494.243988 505.206604 438.591064 283.561218 526.512573 211.827332 C 563.046021 181.99762 615.836182 185.060608 651.605957 191.875183 C 672.844177 195.931152 695.286682 196.171143 717.63324 191.875183 Z"/>
                <path id="path32" fill="#ff6d7a" stroke="none" d="M 518.165955 187.631592 C 550.822815 191.612488 552.385254 238.076599 520.053894 244.158447 C 497.801086 248.344788 476.063904 248.659729 453.23468 244.293396 C 417.425537 237.458435 364.572388 234.387146 327.996704 264.299683 C 293.365753 292.596375 280.985657 344.158386 284.718292 397.977783 C 287.072784 431.927979 238.411057 440.951965 228.742188 408.316406 C 196.293228 298.80542 219.173355 159.272278 385.635223 191.039307 C 442.793457 201.972595 463.032928 180.910034 518.165955 187.631592 Z"/>
                <path id="path33" fill="#ffaa64" stroke="none" d="M 1003.038696 450.51355 L 1003.038696 515.106567 C 1003.038696 532.409729 989.002075 546.424438 971.671814 546.424438 L 936.580139 546.424438 C 874.708923 836.642761 923.582458 607.513733 868.729614 864.809265 C 862.554321 893.739136 836.990295 914.408875 807.368225 914.408875 L 289.442291 914.408875 C 259.839813 914.408875 234.25621 893.739136 228.100479 864.809265 C 191.754105 694.361938 195.282852 710.901672 160.249985 546.424438 L 124.766205 546.424438 C 107.436012 546.424438 93.399338 532.409729 93.399338 515.106567 L 93.399338 450.51355 C 93.399338 433.21051 107.436012 419.19574 124.766205 419.19574 L 971.671814 419.19574 C 989.002075 419.19574 1003.038696 433.21051 1003.038696 450.51355 Z"/>
                <path id="path34" fill="#cbe3fa" stroke="none" d="M 1003.038696 450.70343 L 1003.038696 515.688049 C 1003.038696 533.096069 989.002075 547.19574 971.671814 547.19574 L 124.766205 547.19574 C 107.436012 547.19574 93.399338 533.096069 93.399338 515.688049 L 93.399338 450.70343 C 93.399338 433.295471 107.436012 419.19574 124.766205 419.19574 L 971.671814 419.19574 C 989.002075 419.19574 1003.038696 433.295471 1003.038696 450.70343 Z"/>
                <path id="path35" fill="#ffaa64" stroke="none" d="M 421.397705 277.556396 C 414.162811 277.556396 407.659058 272.548645 406.081146 265.230957 C 404.126892 256.172607 398.585541 223.977905 409.336945 190.007446 C 415.278137 171.106995 425.496338 154.124756 440.499268 140.136536 C 446.81488 134.245789 456.739044 134.561523 462.664581 140.842224 C 468.588104 147.124817 468.270569 156.992126 461.954987 162.884888 C 451.289825 172.843872 443.755066 185.048401 439.262421 199.342651 C 430.592712 226.740051 435.645966 253.583862 436.745605 258.685181 C 438.83316 268.363464 431.425781 277.556396 421.397705 277.556396 L 421.397705 277.556396 Z"/>
                <path id="path36" fill="#ffaa64" stroke="none" d="M 687.889282 277.556396 C 680.65448 277.556396 674.150818 272.548645 672.572937 265.230957 C 670.618652 256.172607 665.077393 223.977905 675.828674 190.007446 C 681.769775 171.106995 691.987915 154.124756 706.990662 140.136536 C 713.306152 134.245789 723.230225 134.561523 729.155701 140.842224 C 735.081055 147.122803 734.761597 156.992126 728.446106 162.884888 C 717.781067 172.843872 710.246399 185.048401 705.753784 199.342651 C 697.084229 226.740051 702.137329 253.583862 703.237 258.685181 C 705.324524 268.363464 697.917236 277.556396 687.889282 277.556396 L 687.889282 277.556396 Z"/>
                <g id="g1">
                    <path id="path37" fill="#e84857" stroke="none" d="M 375.584198 258.700134 C 369.710876 252.327759 370.117065 242.399536 376.494751 236.529236 C 382.870453 230.66095 392.803925 231.065002 398.677246 237.43927 C 399.931183 238.798523 406.718994 245.610229 417.199951 246.084839 C 428.946655 246.647705 436.856903 238.8927 438.316925 237.337341 C 444.247162 231.013977 454.182556 230.698181 460.507294 236.621399 C 466.833893 242.548523 467.153748 252.478821 461.223541 258.802124 C 437.48291 284.105225 398.27298 283.318726 375.584198 258.700134 Z"/>
                    <path id="path38" fill="#e84857" stroke="none" d="M 686.557312 277.489685 C 678.117249 277.489685 671.144958 270.787781 670.87616 262.295227 C 670.601379 253.634033 677.404907 246.390808 686.072632 246.116211 C 696.785156 245.776917 703.86731 238.763184 705.178162 237.358887 C 711.098633 231.025757 721.032104 230.688416 727.366577 236.601807 C 733.703003 242.517151 734.042542 252.445435 728.124023 258.780518 C 717.878601 269.736572 701.622375 277.489685 686.557312 277.489685 L 686.557312 277.489685 Z"/>
                    <path id="path39" fill="#e84857" stroke="none" d="M 632.965271 419.195679 L 605.482483 419.195679 C 632.547302 338.632202 629.592041 227.738586 551.870789 196.035645 C 568.672485 189.139587 587.12854 186.393738 605.42749 186.277649 C 609.658386 186.250549 613.751831 187.913818 616.7052 190.942017 C 663.25238 238.690613 669.157104 327.772278 648.132385 407.588562 C 646.327026 414.44928 640.06311 419.195679 632.965271 419.195679 Z"/>
                </g>
                <path id="path40" fill="#eef7ff" stroke="none" d="M 971.325806 419.263855 C 1001.075562 421.202271 998.844788 465.905273 969.03064 465.905273 L 171.600433 465.905273 C 154.323853 465.905273 140.319992 479.84613 140.319992 497.044983 L 140.319992 514.341125 C 140.319992 544.65564 93.399338 546.370239 93.399338 514.561035 L 93.399338 450.335449 C 93.399338 433.136597 107.403191 419.19574 124.679764 419.19574 C 124.679764 419.19574 970.639587 419.219055 971.325806 419.263855 Z"/>
                <path id="path41" fill="#ffbd7b" stroke="none" d="M 908.612427 670.999023 L 886.714355 773.818665 L 208.694031 773.818665 L 186.776382 670.999023 Z"/>
                <path id="path42" fill="#faa157" stroke="none" d="M 159.497696 547.19574 C 162.903824 563.196777 165.936478 577.487793 168.675827 590.401367 C 170.210724 597.632935 176.590836 602.802246 183.975983 602.802246 L 909.296875 602.802246 C 916.680054 602.802246 923.058228 597.636841 924.597046 590.40918 C 927.352051 577.458435 930.412048 563.106812 933.792786 547.19574 L 159.497696 547.19574 Z"/>
                <path id="path43" fill="#ffd3a6" stroke="none" d="M 748.08783 914.408875 L 620.08783 914.408875 L 620.08783 547.19574 L 748.08783 547.19574 Z"/>
                <path id="path44" fill="#ffd3a6" stroke="none" d="M 472.153442 914.408875 L 344.153442 914.408875 L 344.153442 547.19574 L 472.153442 547.19574 Z"/>
                <path id="path45" fill="#ffbd7b" stroke="none" d="M 748.08783 547.19574 L 748.08783 587.149536 C 748.08783 595.793701 741.034058 602.802246 732.334045 602.802246 L 635.841675 602.802246 C 627.141663 602.802246 620.08783 595.793701 620.08783 587.149536 L 620.08783 547.19574 L 748.08783 547.19574 Z"/>
                <path id="path46" fill="#ffbd7b" stroke="none" d="M 472.153442 547.19574 L 472.153442 587.149536 C 472.153442 595.793701 465.09964 602.802246 456.399597 602.802246 L 359.907288 602.802246 C 351.207214 602.802246 344.153442 595.793701 344.153442 587.149536 L 344.153442 547.19574 L 472.153442 547.19574 Z"/>
            </g>
        </g>
    </g>
</svg>
