<?xml version="1.0" encoding="UTF-8"?>
<!-- Generated by Pixelmator Pro 3.4.3 -->
<svg width="512" height="672" viewBox="0 0 512 672" xmlns="http://www.w3.org/2000/svg">
    <path id="Path" fill="#b5835d" stroke="none" d="M 24.21891 521.378784 L 487.779755 521.378784 L 487.779755 672 L 24.21891 672 Z"/>
    <path id="path1" fill="#936547" stroke="none" d="M 302.355682 532.965576 L 441.424072 532.965576 L 441.424072 625.65564 L 302.355682 625.65564 Z"/>
    <g id="Group">
        <path id="path2" fill="#d8b294" stroke="none" d="M 395.06839 590.896667 L 348.712708 590.896667 C 342.315308 590.896667 337.123108 585.70575 337.123108 579.309937 C 337.123108 572.914124 342.315308 567.723206 348.712708 567.723206 L 395.06839 567.723206 C 401.465759 567.723206 406.657959 572.914124 406.657959 579.309937 C 406.657959 585.70575 401.465759 590.896667 395.06839 590.896667 Z"/>
        <path id="path3" fill="#d8b294" stroke="none" d="M 1.041066 0 L 510.958923 0 L 510.958923 532.965576 L 1.041066 532.965576 Z"/>
    </g>
    <path id="path4" fill="#426d5f" stroke="none" d="M 58.98634 57.931152 L 453.013672 57.931152 L 453.013672 312.82782 L 58.98634 312.82782 Z"/>
    <path id="path5" fill="#936547" stroke="none" d="M 128.521194 440.275513 C 128.521194 459.472351 112.955292 475.034424 93.753769 475.034424 C 74.552246 475.034424 58.98634 459.472351 58.98634 440.275513 C 58.98634 421.078674 74.552246 405.516571 93.753769 405.516571 C 112.955292 405.516571 128.521194 421.078674 128.521194 440.275513 Z"/>
    <path id="path6" fill="#b5835d" stroke="none" d="M 337.123108 405.517883 L 198.054733 405.517883 C 191.657349 405.517883 186.465149 400.326904 186.465149 393.931122 C 186.465149 387.535339 191.657349 382.34436 198.054733 382.34436 L 337.123108 382.34436 C 343.520477 382.34436 348.712708 387.535339 348.712708 393.931122 C 348.712708 400.326904 343.520477 405.517883 337.123108 405.517883 Z"/>
    <g id="g1">
        <path id="path7" fill="#2c4f43" stroke="none" d="M 174.876877 208.552307 C 171.909912 208.552307 168.942932 207.416962 166.683578 205.158203 C 162.151718 200.627441 162.151718 193.304993 166.683578 188.775543 L 189.86142 165.603394 C 194.393265 161.072601 201.717484 161.072601 206.248032 165.603394 C 210.779892 170.134125 210.779892 177.456573 206.248032 181.985992 L 183.07019 205.158203 C 180.810837 207.41568 177.843857 208.552307 174.876877 208.552307 Z"/>
        <path id="path8" fill="#2c4f43" stroke="none" d="M 105.342026 139.034424 C 102.375061 139.034424 99.408073 137.899109 97.14872 135.64032 C 92.616867 131.109558 92.616867 123.787109 97.14872 119.25769 L 120.326561 96.08551 C 124.858414 91.554749 132.182648 91.554749 136.713181 96.08551 C 141.245056 100.616272 141.245056 107.938721 136.713181 112.46814 L 113.535339 135.64032 C 111.275978 137.899109 108.309013 139.034424 105.342026 139.034424 Z"/>
        <path id="path9" fill="#2c4f43" stroke="none" d="M 105.342026 208.552307 C 102.375061 208.552307 99.408073 207.416962 97.14872 205.158203 C 92.616867 200.627441 92.616867 193.304993 97.14872 188.775543 L 189.86142 96.08551 C 194.393265 91.554749 201.717484 91.554749 206.248032 96.08551 C 210.779892 100.616272 210.779892 107.938721 206.248032 112.46814 L 113.535339 205.158203 C 111.275978 207.41568 108.309013 208.552307 105.342026 208.552307 Z"/>
    </g>
    <path id="path10" fill="#dc691d" stroke="none" d="M 429.835815 417.103333 L 360.300964 417.103333 C 347.495728 417.103333 337.123108 406.733246 337.123108 393.931122 L 337.123108 393.931122 C 337.123108 381.128998 347.495728 370.758942 360.300964 370.758942 L 429.835815 370.758942 C 442.641052 370.758942 453.013672 381.128998 453.013672 393.931122 L 453.013672 393.931122 C 453.013672 406.733246 442.641052 417.103333 429.835815 417.103333 Z"/>
    <g id="g2"/>
    <g id="g3"/>
    <g id="g4"/>
    <g id="g5"/>
    <g id="g6"/>
    <g id="g7"/>
    <g id="g8"/>
    <g id="g9"/>
    <g id="g10"/>
    <g id="g11"/>
    <g id="g12"/>
    <g id="g13"/>
    <g id="g14"/>
    <g id="g15"/>
    <g id="g16"/>
</svg>
