<?xml version="1.0" encoding="iso-8859-1"?>
<!-- Generator: Adobe Illustrator 19.0.0, SVG Export Plug-In . SVG Version: 6.00 Build 0)  -->
<svg version="1.1" id="Capa_1" xmlns="http://www.w3.org/2000/svg" xmlns:xlink="http://www.w3.org/1999/xlink" x="0px" y="0px"
	 viewBox="0 0 512 512" style="enable-background:new 0 0 512 512;" xml:space="preserve">
<g>
	<g>
		<g>
			<path d="M307.2,215.04c0-28.242-22.958-51.2-51.2-51.2c-28.242,0-51.2,22.958-51.2,51.2c0,28.242,22.958,51.2,51.2,51.2
				C284.242,266.24,307.2,243.282,307.2,215.04z"/>
			<path d="M256,286.72c-49.951,0-92.16,23.45-92.16,51.2c0,83.231,31.027,147.907,43.95,160.85
				C216.228,507.187,233.779,512,256,512c22.221,0,39.772-4.813,48.21-13.23c12.923-12.943,43.95-77.619,43.95-160.85
				C348.16,310.17,305.951,286.72,256,286.72z"/>
			<path d="M256,0C137.421,0,40.96,96.461,40.96,215.04c0,68.628,33.116,133.571,88.617,173.773
				c4.526,3.277,10.977,2.335,14.295-2.294c3.338-4.588,2.294-10.977-2.294-14.295C91.402,335.872,61.44,277.115,61.44,215.04
				c0-107.274,87.286-194.56,194.56-194.56s194.56,87.286,194.56,194.56c0,62.075-29.962,120.832-80.138,157.184
				c-4.588,3.318-5.632,9.708-2.294,14.295c1.987,2.785,5.141,4.239,8.294,4.239c2.089,0,4.198-0.635,6.001-1.946
				c55.501-40.202,88.617-105.144,88.617-173.773C471.04,96.461,374.579,0,256,0z"/>
			<path d="M256,81.92c-73.4,0-133.12,59.72-133.12,133.12c0,29.061,9.216,56.566,26.665,79.524
				c3.441,4.506,9.851,5.366,14.356,1.966c4.506-3.42,5.386-9.871,1.966-14.377c-14.725-19.354-22.508-42.578-22.508-67.113
				c0-62.095,50.545-112.64,112.64-112.64s112.64,50.545,112.64,112.64c0,24.535-7.782,47.759-22.508,67.113
				c-3.42,4.506-2.54,10.957,1.966,14.377c1.864,1.393,4.035,2.068,6.205,2.068c3.072,0,6.144-1.393,8.151-4.035
				c17.449-22.958,26.665-50.463,26.665-79.524C389.12,141.64,329.4,81.92,256,81.92z"/>
		</g>
	</g>
</g>
<g>
</g>
<g>
</g>
<g>
</g>
<g>
</g>
<g>
</g>
<g>
</g>
<g>
</g>
<g>
</g>
<g>
</g>
<g>
</g>
<g>
</g>
<g>
</g>
<g>
</g>
<g>
</g>
<g>
</g>
</svg>
