<?xml version="1.0" encoding="UTF-8"?>
<!-- Generated by Pixelmator Pro 3.4.3 -->
<svg width="512" height="493" viewBox="0 0 512 493" xmlns="http://www.w3.org/2000/svg">
    <g id="Group-copy">
        <path id="Path" fill="#424a60" stroke="none" d="M 433.63205 51.144196 L 451.208313 60.835175 L 264.785431 163.622711 L 247.209152 153.931702 Z"/>
        <path id="path1" fill="#424a60" stroke="none" d="M 188.979126 183.875671 L 198.726334 201.541229 L 60.881443 451.36731 L 51.134239 433.701752 Z"/>
        <path id="path2" fill="#424a60" stroke="none" d="M 315.270874 246.233521 L 415.567108 374.3284 L 406.110992 386.405396 L 305.814789 258.310547 Z"/>
        <path id="path3" fill="#43b05c" stroke="none" d="M 512 48.319519 C 512 75.005676 490.374512 96.639069 463.69812 96.639069 C 437.021698 96.639069 415.39624 75.005676 415.39624 48.319519 C 415.39624 21.633392 437.021698 0 463.69812 0 C 490.374512 0 512 21.633392 512 48.319519 Z"/>
        <path id="path4" fill="#57d8ab" stroke="none" d="M 96.603775 444.539673 C 96.603775 471.22583 74.978279 492.859222 48.301888 492.859222 C 21.62549 492.859222 -0 471.22583 -0 444.539673 C -0 417.853516 21.62549 396.220154 48.301888 396.220154 C 74.978279 396.220154 96.603775 417.853516 96.603775 444.539673 Z"/>
        <path id="path5" fill="#ebba16" stroke="none" d="M 454.03775 386.556244 C 454.03775 402.567932 441.062439 415.547974 425.05661 415.547974 C 409.050781 415.547974 396.07547 402.567932 396.07547 386.556244 C 396.07547 370.544586 409.050781 357.564514 425.05661 357.564514 C 441.062439 357.564514 454.03775 370.544586 454.03775 386.556244 Z"/>
    </g>
    <g id="Group">
        <path id="path6" fill="#e5646e" stroke="none" d="M 349.257111 269.924713 L 187.629227 269.924713 L 178.260971 268.453979 L 169.044022 269.924713 L 7.171604 269.924713 C 3.210727 269.924713 0 266.71283 0 262.750488 L 0 29.588226 C 0 25.625885 3.210727 22.413971 7.171604 22.413971 L 12.191727 22.413971 L 178.214355 33.595032 L 343.603729 22.413971 L 349.257111 22.413971 C 353.217987 22.413971 356.428711 25.625885 356.428711 29.588226 L 356.428711 262.750488 C 356.428711 266.71283 353.217987 269.924713 349.257111 269.924713 Z"/>
        <path id="path7" fill="#db4655" stroke="none" d="M 344.236969 22.413971 L 344.236969 244.08316 C 344.236969 251.207153 338.442352 256.996765 331.328094 256.996765 L 199.729172 256.996765 C 193.009399 256.996765 187.629227 263.195282 187.629227 269.924713 L 169.044022 269.924713 C 169.044022 263.195282 163.419342 256.996765 156.699554 256.996765 L 25.100615 256.996765 C 17.97921 256.996765 12.191727 251.207153 12.191727 244.08316 L 12.191727 22.413971 Z"/>
        <path id="path8" fill="#f1f6f7" stroke="none" d="M 331.11438 246.23613 L 198.706512 246.440598 C 186.823883 246.440598 178.214355 258.030579 178.214355 269.924713 C 178.214355 258.030579 171.404922 246.074005 159.522293 246.074005 L 27.03838 246.953552 C 25.058304 246.953552 23.452578 245.346527 23.452578 243.364288 L 23.452578 4.480591 C 23.452578 2.498352 25.058304 0.891327 27.03838 0.891327 L 33.492825 0.173889 L 157.920151 0.173889 C 164.347336 0.173889 170.11618 2.994781 174.059128 7.467926 C 177.405396 11.263794 178.077377 19.403687 178.077377 24.863983 L 181.617294 24.497375 C 181.617294 19.037079 181.465256 11.263794 184.811539 7.467194 C 188.753754 2.994781 194.522568 0.173187 200.950485 0.173187 L 332.549438 0.173187 C 334.52951 0.173187 336.135223 1.780212 336.135223 3.762421 L 336.135223 236.908936 L 334.700897 242.646866 C 334.700195 244.629105 333.095184 246.23613 331.11438 246.23613 Z"/>
        <path id="path9" fill="#e1ebf0" stroke="none" d="M 334.91391 236.908936 L 334.91391 244.08316 C 334.91391 246.06395 333.308167 247.670273 331.328094 247.670273 L 199.729172 247.670273 C 187.845825 247.670273 178.214355 257.312439 178.214355 269.207275 C 178.214355 263.259827 175.804703 257.872009 171.910522 253.976395 C 168.016342 250.080795 162.637634 247.670273 156.699554 247.670273 L 25.100615 247.670273 C 23.120533 247.670273 21.514811 246.06395 21.514811 244.08316 L 21.514811 3.761017 C 21.514811 1.780212 23.120533 0.173889 25.100615 0.173889 L 32.272221 0.173889 L 32.272221 234.039246 C 32.272221 235.624023 33.556652 236.908936 35.140862 236.908936 L 156.699554 236.908936 C 164.321533 236.908936 171.338226 239.569839 176.868958 244.010696 C 177.657135 244.643448 178.771591 244.643448 179.559753 244.010696 C 185.0905 239.569839 192.107193 236.908936 199.729172 236.908936 Z"/>
        <g id="g1">
            <path id="path10" fill="#e1ebf0" stroke="none" d="M 183.593063 7.470062 L 183.593063 254.966446 C 180.243912 258.761597 178.214355 263.747711 178.214355 269.207275 C 178.214355 263.747711 176.184784 258.761597 172.835648 254.966446 L 172.835648 7.470062 C 176.184784 11.265259 178.214355 16.251343 178.214355 21.710907 C 178.214355 16.251343 180.243912 11.265259 183.593063 7.470062 Z"/>
        </g>
        <g id="g2">
            <path id="path11" fill="#d2e4e7" stroke="none" d="M 183.593063 241.249329 L 183.593063 254.966446 C 180.141373 258.845551 178.198578 264.730591 178.214355 269.924713 C 178.230148 264.731262 176.285919 258.845551 172.835648 254.966446 L 172.835648 241.249329 C 174.248459 242.0672 175.596741 242.992661 176.866089 244.011414 C 177.654968 244.642746 178.773743 244.642746 179.562622 244.011414 C 180.832001 242.992661 182.180252 242.0672 183.593063 241.249329 Z"/>
        </g>
        <path id="path12" fill="#b3e59f" stroke="none" d="M 152.905777 25.283691 L 152.905777 63.759064 L 143.652969 65.409088 L 89.358902 65.07193 C 88.799515 65.07193 88.247307 64.935608 87.745293 64.684509 L 66.621338 53.888031 C 65.538422 53.342773 64.2547 53.378662 63.214821 53.988464 L 43.180229 64.878204 L 43.922489 59.11731 L 43.897388 26.001099 C 43.897388 24.021027 45.503826 22.413971 47.483189 22.413971 L 52.503311 21.696564 L 149.319977 21.696564 C 151.299332 21.696564 152.905777 23.303589 152.905777 25.283691 Z"/>
        <path id="path13" fill="#fdcd08" stroke="none" d="M 152.905777 143.529236 L 152.905777 182.987457 L 98.486923 186.970612 L 45.386929 182.987457 L 44.166325 144.719452 C 44.166325 142.739349 45.772766 141.132324 47.752125 141.132324 L 52.503311 139.942139 L 149.319977 139.942139 C 151.299332 139.942139 152.905777 141.549133 152.905777 143.529236 Z"/>
        <path id="path14" fill="#c27e4e" stroke="none" d="M 307.04361 84.334015 L 208.823471 83.394897 C 206.843414 83.394897 205.237686 81.788574 205.237686 79.80777 L 205.130829 27.291016 C 205.130829 25.310211 206.736526 23.703918 208.716629 23.703918 L 247.011551 21.696564 L 300.275055 21.696564 L 307.303223 23.230438 C 309.283295 23.230438 310.889038 24.8367 310.889038 26.817505 L 310.629425 80.746155 C 310.629425 82.727692 309.024414 84.334015 307.04361 84.334015 Z"/>
        <path id="path15" fill="#95d6a4" stroke="none" d="M 313.040527 25.283691 L 313.040527 76.93808 L 312.323364 81.960052 C 312.323364 83.940125 310.716919 85.54715 308.737549 85.54715 L 243.741318 86.264587 L 256.363312 64.935608 C 258.414398 61.420258 261.663147 58.765778 265.521454 57.452911 L 279.01123 52.868561 C 283.127747 51.469604 286.541412 48.542511 288.556671 44.689941 L 300.275055 21.696564 L 309.454712 21.696564 C 311.434082 21.696564 313.040527 23.303589 313.040527 25.283691 Z"/>
        <path id="path16" fill="#b4e3f5" stroke="none" d="M 308.936218 202.845703 L 207.976501 203.456238 C 205.996445 203.456238 204.390732 201.849945 204.390732 199.869141 L 204.390732 144.719452 C 204.390732 142.738617 205.996445 141.132324 207.976501 141.132324 L 212.638062 139.941406 L 309.454712 139.941406 C 311.434784 139.941406 313.040527 141.547729 313.040527 143.528503 L 313.040527 153.931854 L 310.889038 159.006927 L 313.040527 164.693207 L 313.040527 175.454529 L 310.889038 180.742645 L 313.040527 186.215881 L 313.040527 195.183655 L 312.522003 199.258606 C 312.522003 201.23938 310.91629 202.845703 308.936218 202.845703 Z"/>
        <path id="path17" fill="#8edcef" stroke="none" d="M 313.040527 195.183655 L 313.040527 200.923035 C 313.040527 202.903809 311.434784 204.510132 309.454712 204.510132 L 206.900772 204.510132 C 204.9207 204.510132 203.314972 202.903809 203.314972 200.923035 L 203.314972 186.215881 L 205.908936 180.742645 L 203.314972 175.454529 L 203.314972 164.693207 L 205.908936 159.006927 L 203.314972 153.931854 L 203.314972 143.529236 C 203.314972 141.548431 204.9207 139.942139 206.900772 139.942139 L 212.638062 139.942139 L 212.638062 193.031372 C 212.638062 194.220123 213.601196 195.183655 214.789551 195.183655 Z"/>
        <g id="g3">
            <g id="g4">
                <path id="path18" fill="#e1ebf0" stroke="none" d="M 127.784363 113.167908 L 68.298058 113.167908 C 65.327576 113.167908 62.919353 110.759521 62.919353 107.787262 C 62.919353 104.814972 65.327576 102.406586 68.298058 102.406586 L 127.784363 102.406586 C 130.754837 102.406586 133.163055 104.814972 133.163055 107.787262 C 133.163055 110.759521 130.754837 113.167908 127.784363 113.167908 Z"/>
            </g>
            <g id="g5">
                <path id="path19" fill="#e1ebf0" stroke="none" d="M 144.298401 231.41275 L 51.784718 231.41275 C 48.814243 231.41275 46.406013 229.004364 46.406013 226.032104 C 46.406013 223.059814 48.814243 220.651428 51.784718 220.651428 L 144.298401 220.651428 C 147.26889 220.651428 149.677109 223.059814 149.677109 226.032104 C 149.677109 229.004364 147.26889 231.41275 144.298401 231.41275 Z"/>
            </g>
            <g id="g6">
                <path id="path20" fill="#e1ebf0" stroke="none" d="M 310.530457 113.167908 L 205.825027 113.167908 C 202.853836 113.167908 200.446335 110.759521 200.446335 107.787262 C 200.446335 104.814972 202.853836 102.406586 205.825027 102.406586 L 310.530457 102.406586 C 313.501648 102.406586 315.909149 104.814972 315.909149 107.787262 C 315.909149 110.759521 313.501648 113.167908 310.530457 113.167908 Z"/>
            </g>
            <g id="g7">
                <path id="path21" fill="#e1ebf0" stroke="none" d="M 291.601715 231.41275 L 224.753036 231.41275 C 221.781845 231.41275 219.374344 229.004364 219.374344 226.032104 C 219.374344 223.059814 221.781845 220.651428 224.753036 220.651428 L 291.601715 220.651428 C 294.572906 220.651428 296.980408 223.059814 296.980408 226.032104 C 296.980408 229.004364 294.572906 231.41275 291.601715 231.41275 Z"/>
            </g>
        </g>
        <path id="path22" fill="#c27e4e" stroke="none" d="M 146.7052 69.069397 L 123.756065 59.422241 L 120.891739 55.868103 L 99.757019 45.059418 C 98.684853 44.524933 97.416916 44.561554 96.377022 45.156281 L 83.827446 52.040649 L 80.72644 56.491547 L 64.918083 62.413879 Z"/>
        <path id="path23" fill="#b36d3c" stroke="none" d="M 146.702332 69.067963 L 64.917358 62.41745 L 83.82888 52.043518 L 90.694252 55.553162 C 91.098732 55.759766 91.545532 55.867401 91.999489 55.867401 L 120.891739 55.867401 Z"/>
        <path id="path24" fill="#e5646e" stroke="none" d="M 119.555664 182.986755 C 119.555664 172.968658 112.713951 164.549713 103.448952 162.149933 C 101.720596 161.702271 99.668083 162.273315 97.799889 162.273315 C 85.917252 162.273315 77.416748 171.623505 77.416748 183.510468 L 98.042999 185.627563 Z"/>
        <path id="path25" fill="#db4655" stroke="none" d="M 103.780289 162.246796 C 94.686684 164.75058 88.002754 173.087036 88.002754 182.987457 L 79.566795 184.77243 L 76.528191 182.987457 C 76.528191 171.099762 86.159653 161.464783 98.042999 161.464783 C 100.029526 161.464783 101.951523 161.737427 103.780289 162.246796 Z"/>
        <path id="path26" fill="#fdcd08" stroke="none" d="M 247.011551 21.696564 C 245.921478 45.342804 226.952576 64.318634 203.314972 65.409088 L 204.390732 26.817505 C 204.390732 24.837433 205.997147 23.230438 207.976501 23.230438 L 212.638062 21.696564 Z"/>
        <g id="g8">
            <path id="path27" fill="#8edcef" stroke="none" d="M 313.040527 175.454529 L 313.040527 186.215881 C 309.669861 186.215881 308.206848 186.904602 306.184448 187.858765 C 303.667206 189.042511 300.526062 190.520416 294.75293 190.520416 C 288.979797 190.520416 285.838623 189.042511 283.314209 187.858765 C 281.29184 186.904602 279.828827 186.215881 276.45816 186.215881 C 273.094666 186.215881 271.631683 186.904602 269.609283 187.858765 C 267.0849 189.042511 263.950867 190.520416 258.177765 190.520416 C 252.39743 190.520416 249.263458 189.042511 246.739014 187.858765 C 244.71666 186.904602 243.260818 186.215881 239.890167 186.215881 C 236.519501 186.215881 235.056503 186.904602 233.034103 187.858765 C 230.509705 189.042511 227.375687 190.520416 221.60257 190.520416 C 215.829437 190.520416 212.688263 189.042511 210.171036 187.858765 C 208.148636 186.904602 206.685638 186.215881 203.314972 186.215881 L 206.152771 180.498749 L 203.314972 175.454529 C 209.088104 175.454529 212.229279 176.932434 214.746506 178.11615 C 216.768906 179.070343 218.231903 179.759064 221.60257 179.759064 C 224.973221 179.759064 226.429062 179.070343 228.451447 178.11615 C 230.975861 176.932434 234.117035 175.454529 239.890167 175.454529 C 245.663284 175.454529 248.797302 176.932434 251.321686 178.11615 C 253.344086 179.070343 254.807068 179.759064 258.177765 179.759064 C 261.541229 179.759064 263.004242 179.070343 265.026611 178.11615 C 267.551025 176.932434 270.685028 175.454529 276.45816 175.454529 C 282.238464 175.454529 285.372467 176.932434 287.896881 178.11615 C 289.919281 179.070343 291.382263 179.759064 294.75293 179.759064 C 298.123566 179.759064 299.586578 179.070343 301.608978 178.11615 C 304.126221 176.932434 307.267395 175.454529 313.040527 175.454529 Z"/>
        </g>
        <g id="g9">
            <path id="path28" fill="#8edcef" stroke="none" d="M 313.040527 153.931854 L 313.040527 164.693207 C 309.669861 164.693207 308.206848 165.381927 306.184448 166.33609 C 303.667206 167.519836 300.526062 168.997742 294.75293 168.997742 C 288.979797 168.997742 285.838623 167.519836 283.314209 166.33609 C 281.29184 165.381927 279.828827 164.693207 276.45816 164.693207 C 273.094666 164.693207 271.631683 165.381927 269.609283 166.33609 C 267.0849 167.519836 263.950867 168.997742 258.177765 168.997742 C 252.39743 168.997742 249.263458 167.519836 246.739014 166.33609 C 244.71666 165.381927 243.260818 164.693207 239.890167 164.693207 C 236.519501 164.693207 235.056503 165.381927 233.034103 166.33609 C 230.509705 167.519836 227.375687 168.997742 221.60257 168.997742 C 215.829437 168.997742 212.688263 167.519836 210.171036 166.33609 C 208.148636 165.381927 206.685638 164.693207 203.314972 164.693207 L 206.030838 158.884216 L 203.314972 153.931854 C 209.088104 153.931854 212.229279 155.40976 214.746506 156.593506 C 216.768906 157.547638 218.231903 158.236389 221.60257 158.236389 C 224.973221 158.236389 226.429062 157.547638 228.451447 156.593506 C 230.975861 155.40976 234.117035 153.931854 239.890167 153.931854 C 245.663284 153.931854 248.797302 155.40976 251.321686 156.593506 C 253.344086 157.547638 254.807068 158.236389 258.177765 158.236389 C 261.541229 158.236389 263.004242 157.547638 265.026611 156.593506 C 267.551025 155.40976 270.685028 153.931854 276.45816 153.931854 C 282.238464 153.931854 285.372467 155.40976 287.896881 156.593506 C 289.919281 157.547638 291.382263 158.236389 294.75293 158.236389 C 298.123566 158.236389 299.586578 157.547638 301.608978 156.593506 C 304.126221 155.40976 307.267395 153.931854 313.040527 153.931854 Z"/>
        </g>
        <g id="g10">
            <path id="path29" fill="#50cdea" stroke="none" d="M 212.638062 177.169159 L 212.638062 188.949249 C 211.72728 188.590546 210.924026 188.210297 210.171036 187.858765 C 208.148636 186.904602 206.685638 186.215881 203.314972 186.215881 L 203.314972 175.454529 C 207.59642 175.454529 210.436386 176.265228 212.638062 177.169159 Z"/>
        </g>
        <g id="g11">
            <path id="path30" fill="#50cdea" stroke="none" d="M 212.638062 155.646484 L 212.638062 167.426575 C 211.72728 167.067871 210.924026 166.687622 210.171036 166.33609 C 208.148636 165.381927 206.685638 164.693207 203.314972 164.693207 L 203.314972 153.931854 C 207.59642 153.931854 210.436386 154.742554 212.638062 155.646484 Z"/>
        </g>
        <path id="path31" fill="#c27e4e" stroke="none" d="M 152.905777 63.759064 L 152.905777 76.93808 L 152 81.662323 C 152 83.642395 150.393555 85.24942 148.4142 85.24942 L 47.84177 85.493347 C 45.862408 85.493347 44.25597 83.886322 44.25597 81.90625 L 44.77663 65.408386 L 63.504559 53.793304 C 64.544441 53.183502 65.828156 53.147644 66.911064 53.692871 L 72.777435 55.256165 L 88.655373 63.370911 C 89.157379 63.622009 89.709587 63.758331 90.268982 63.758331 L 152.905777 63.758331 Z"/>
        <path id="path32" fill="#95d6a4" stroke="none" d="M 52.503311 21.696564 L 52.503311 59.138855 L 47.84177 64.878204 L 43.180229 64.878204 L 43.180229 25.283691 C 43.180229 23.303589 44.786667 21.696564 46.766029 21.696564 Z"/>
        <path id="path33" fill="#b36d3c" stroke="none" d="M 52.503311 74.785828 L 52.503311 68.494751 C 52.503311 67.734283 52.904202 67.030487 53.558254 66.643066 L 72.777435 55.257568 L 66.911064 52.258759 C 65.828156 51.713531 64.544441 51.74939 63.504559 52.359192 L 43.180229 64.878204 L 43.180229 72.791382 L 43.180229 82.67746 C 43.180229 84.658264 44.78595 86.264587 46.766029 86.264587 L 149.319977 86.264587 C 151.300049 86.264587 152.905777 84.658264 152.905777 82.67746 L 152.905777 76.93808 L 54.654797 76.93808 C 53.466461 76.93808 52.503311 75.974579 52.503311 74.785828 Z"/>
        <path id="path34" fill="#b36d3c" stroke="none" d="M 249.263458 76.93808 L 248.541977 81.601318 L 243.741318 86.264587 L 206.900772 86.264587 C 204.9207 86.264587 203.314972 84.658264 203.314972 82.67746 L 203.314972 65.409088 C 204.917801 65.333771 206.42099 62.403809 207.976501 62.169952 C 209.532059 61.936066 211.139206 64.397552 212.638062 64.010132 L 212.638062 74.785828 C 212.638062 75.974579 213.601196 76.93808 214.789551 76.93808 Z"/>
        <path id="path35" fill="#78c2a4" stroke="none" d="M 313.040527 76.93808 L 313.040527 82.67746 C 313.040527 84.657562 311.434082 86.264587 309.454712 86.264587 L 243.741318 86.264587 L 249.263458 76.93808 Z"/>
        <path id="path36" fill="#f9b419" stroke="none" d="M 212.638062 21.696564 L 212.638062 64.010132 C 209.640335 64.784943 206.520691 65.258453 203.314972 65.409088 L 203.314972 25.283691 C 203.314972 23.303589 204.921402 21.696564 206.900772 21.696564 Z"/>
        <path id="path37" fill="#b4e3f5" stroke="none" d="M 152.905777 182.987457 L 152.905777 195.183655 L 151.469299 199.869141 C 151.469299 201.849213 149.862854 203.456238 147.883499 203.456238 L 48.1982 202.769684 C 46.218838 202.769684 44.612396 201.162628 44.612396 199.182556 L 44.166325 183.917969 L 52.503311 182.987457 Z"/>
        <path id="path38" fill="#8edcef" stroke="none" d="M 152.905777 195.183655 L 152.905777 200.923035 C 152.905777 202.903809 151.300049 204.510132 149.319977 204.510132 L 46.766029 204.510132 C 44.78595 204.510132 43.180229 202.903809 43.180229 200.923035 L 43.180229 182.987457 L 47.84177 180.987305 L 52.503311 182.987457 L 52.503311 193.031372 C 52.503311 194.220123 53.466461 195.183655 54.654797 195.183655 Z"/>
        <path id="path39" fill="#f9b419" stroke="none" d="M 52.503311 139.942139 L 52.503311 182.987457 L 43.180229 182.987457 L 43.180229 143.529236 C 43.180229 141.549133 44.786667 139.942139 46.766029 139.942139 Z"/>
    </g>
</svg>
