<?xml version="1.0" encoding="UTF-8"?>
<!-- Generated by Pixelmator Pro 3.4.3 -->
<svg width="512" height="127" viewBox="0 0 512 127" xmlns="http://www.w3.org/2000/svg">
    <path id="path54" fill="#000000" stroke="none" d="M 93.009369 51.369713 C 92.568092 51.294456 91.923134 51.057388 91.074524 50.654755 C 88.019485 49.254929 85.624504 48.558784 83.893326 48.558784 C 82.16214 48.558784 80.347977 49.631226 78.450851 51.783638 C 76.553703 53.932289 75.607025 55.870216 75.607025 57.597412 L 75.607025 82.511993 C 75.607025 85.270248 77.209976 87.106567 80.412102 88.024734 C 81.811378 88.393509 83.120132 88.656921 84.334602 88.826248 C 85.549065 88.988052 86.333572 89.146103 86.684326 89.292854 C 87.035095 89.439606 87.208588 89.725601 87.208588 90.15081 C 87.208588 90.572266 87.023781 90.816849 86.65416 90.89212 L 58.977875 90.89212 C 58.608253 90.816849 58.423439 90.560974 58.423439 90.120712 C 58.423439 89.45842 59.29092 89.018158 61.022099 88.796143 C 64.997414 88.209122 66.988831 86.113144 66.988831 82.511993 L 66.988831 53.352791 C 66.988831 51.809982 66.140213 50.745064 64.446747 50.158035 C 63.707504 49.898399 62.915466 49.691429 62.070614 49.522102 C 61.221996 49.360298 60.550648 49.202248 60.052788 49.055489 C 59.554935 48.908737 59.241886 48.77327 59.113647 48.637802 C 58.985416 48.513626 58.921299 48.23893 58.921299 47.817482 C 58.921299 47.392265 59.196629 47.034782 59.751057 46.741272 L 73.838127 40.125977 C 74.279411 39.903969 74.554741 39.794838 74.667892 39.794838 C 75.293983 39.794838 75.607025 40.235107 75.607025 41.115646 L 75.607025 50.045151 C 75.607025 50.489182 75.716408 50.707436 75.938927 50.707436 C 76.233116 50.707436 76.98745 49.845711 78.20192 48.118515 C 81.701988 43.230423 84.594841 40.7845 86.876686 40.7845 C 88.166588 40.7845 90.146698 41.300026 92.817024 42.331078 C 95.487343 43.358368 96.822495 44.223846 96.822495 44.919998 C 96.822495 45.766663 96.396301 47.053596 95.551453 48.7808 C 94.702835 50.507996 93.857994 51.369713 93.009369 51.369713"/>
    <path id="path58" fill="#000000" stroke="none" d="M 112.208145 24.304977 C 110.680626 24.304977 109.33416 23.827087 108.17627 22.871292 C 107.014603 21.915504 106.433769 20.587166 106.433769 18.875023 C 106.433769 17.170403 106.988197 15.815735 108.093285 14.822319 C 109.19838 13.832649 110.514679 13.335945 112.042191 13.335945 C 113.56971 13.335945 114.859604 13.922966 115.908119 15.100769 C 116.960411 16.274811 117.484665 17.542931 117.484665 18.901367 C 117.484665 20.263557 116.986816 21.505341 115.991096 22.62294 C 114.999161 23.74807 113.735657 24.304977 112.208145 24.304977 M 100.68956 90.89061 C 100.319931 90.819115 100.135132 90.559471 100.135132 90.119202 C 100.135132 89.456917 101.002602 89.016655 102.73378 88.798401 C 106.709091 88.207611 108.700523 86.11541 108.700523 82.514252 L 108.700523 53.355057 C 108.700523 51.812241 107.851898 50.743561 106.15844 50.15654 C 105.422966 49.90065 104.63092 49.689926 103.78231 49.520592 C 102.937454 49.358788 102.262337 49.200745 101.764473 49.053986 C 101.270393 48.907234 100.957344 48.771767 100.82534 48.64006 C 100.697105 48.515884 100.632988 48.237427 100.632988 47.815971 C 100.632988 47.394524 100.90831 47.033279 101.462738 46.739769 L 115.54982 40.124481 C 115.991096 39.906227 116.270203 39.793335 116.379578 39.793335 C 117.005669 39.793335 117.318718 40.233604 117.318718 41.117897 L 117.318718 82.514252 C 117.318718 86.11541 119.306374 88.207611 123.285446 88.798401 C 125.016632 89.016655 125.880333 89.404236 125.880333 89.953629 C 125.880333 90.50679 125.699295 90.819115 125.329681 90.89061 Z"/>
    <path id="path62" fill="#000000" stroke="none" d="M 171.241089 59.747955 C 171.241089 54.566353 169.943634 50.35183 167.344986 47.09687 C 164.750092 43.845673 161.314133 42.22007 157.040863 42.22007 C 151.51918 42.22007 147.611771 44.80899 145.329926 49.990593 C 144.447357 51.977432 144.002304 54.254028 144.002304 56.827896 C 144.002304 62.080986 145.088531 66.453552 147.264771 69.94558 C 149.916229 74.133759 153.397461 76.229729 157.704666 76.229729 C 162.015656 76.229729 165.349777 74.777222 167.707047 71.875977 C 170.064331 68.970978 171.241089 64.92955 171.241089 59.747955 M 143.866531 102.577995 C 142.999054 103.420898 142.289978 104.324005 141.739334 105.2798 C 141.184891 106.235596 140.909561 107.435982 140.909561 108.89225 C 140.909561 110.337227 141.433823 111.868752 142.48233 113.460487 C 143.534622 115.063507 144.960297 116.504723 146.766922 117.791656 C 150.742218 120.730522 155.532211 122.201843 161.129318 122.201843 C 166.730194 122.201843 171.803055 120.576248 176.351654 117.321281 C 180.900253 114.073845 183.174545 110.502792 183.174545 106.626945 C 183.174545 102.751091 181.296265 100.150887 177.539703 98.830078 C 175.770828 98.239296 171.222229 97.87429 163.893921 97.727539 C 156.561859 97.58078 151.81337 97.377579 149.637131 97.121696 C 148.682907 98.224243 147.694748 99.195091 146.683945 100.041763 C 145.669373 100.888428 144.730225 101.731323 143.866531 102.577995 M 173.892548 45.087448 L 188.699997 44.425171 C 189.54863 44.425171 190.099274 44.51548 190.355743 44.69986 C 190.615997 44.884247 190.891312 45.520187 191.185516 46.60392 C 191.479691 47.68766 191.626785 48.703651 191.626785 49.659447 C 191.626785 50.615242 191.536285 51.168396 191.351456 51.315147 C 191.166656 51.461906 190.800797 51.533401 190.246368 51.533401 L 177.981003 51.533401 C 178.203537 51.939804 178.441147 52.361252 178.70137 52.801521 C 178.957855 53.241783 179.289749 53.979324 179.693329 55.006615 C 180.100662 56.037674 180.300568 57.629402 180.300568 59.774292 C 180.300568 61.926704 179.776306 64.169434 178.727798 66.498703 C 177.679276 68.83551 176.140457 70.901375 174.115067 72.700073 C 169.619278 76.745255 163.799637 78.765961 156.656158 78.765961 C 154.777878 78.765961 152.714783 78.416008 150.466888 77.716095 C 149.916229 78.306885 149.176987 78.844986 148.256714 79.345459 C 147.336441 79.838409 146.435013 80.346405 145.548676 80.85817 C 143.34227 82.107483 142.237183 83.356781 142.237183 84.606079 C 142.237183 87.733109 147.430725 89.328598 157.814041 89.403862 C 168.201141 89.475357 175.024048 89.817795 178.286499 90.419861 C 181.545197 91.029465 184.075974 92.233612 185.882568 94.032303 C 188.718857 96.862053 190.136993 100.098198 190.136993 103.733223 C 190.136993 106.860245 188.790512 110.073814 186.101349 113.381462 C 181.424515 119.225342 174.281036 123.12001 164.667114 125.06546 C 161.242462 125.765373 157.614151 126.115326 153.782166 126.115326 C 146.819717 126.115326 141.53566 124.854736 137.926193 122.34108 C 134.316742 119.819893 132.510117 116.779419 132.510117 113.215889 C 132.510117 111.266678 132.974045 109.663651 133.894318 108.391769 C 134.81459 107.127419 135.98381 105.927032 137.401932 104.813194 C 138.820068 103.688072 140.373993 102.510262 142.071228 101.283539 C 143.764694 100.049286 145.386505 98.480133 146.932877 96.568542 C 143.395065 96.275032 140.36644 95.153671 137.843216 93.208221 C 135.319992 91.259003 134.060272 89.34742 134.060272 87.473465 C 134.060272 85.599503 134.554352 84.214737 135.550064 83.315384 C 136.545776 82.412277 137.760239 81.640869 139.197235 80.997406 C 140.634232 80.357697 142.142899 79.755623 143.726974 79.206238 C 145.311066 78.653076 146.691483 77.93811 147.872009 77.057587 C 143.745834 75.439507 140.558792 73.208069 138.314682 70.355743 C 136.066772 67.510941 134.942825 64.395203 134.942825 61.016068 C 134.942825 54.731918 137.235977 49.606766 141.822296 45.636841 C 146.408615 41.666916 151.941605 39.683838 158.425064 39.683838 C 164.904724 39.683838 170.064331 41.482529 173.892548 45.087448"/>
    <path id="path66" fill="#000000" stroke="none" d="M 210.909683 48.227638 C 210.909683 49.10817 211.037918 49.5522 211.298141 49.5522 C 211.554626 49.5522 211.739426 49.488228 211.848801 49.360298 C 211.958191 49.232353 212.731369 48.374397 214.168381 46.793953 C 218.332275 42.165512 222.54895 39.847527 226.822205 39.847527 C 232.419327 39.847527 236.526657 41.096825 239.140381 43.599197 C 242.346268 46.756325 243.949234 52.069626 243.949234 59.527817 L 243.949234 82.511993 C 243.949234 86.113144 245.936874 88.209122 249.915955 88.796143 C 251.647141 89.018158 252.510849 89.401978 252.510849 89.955139 C 252.510849 90.504532 252.326035 90.816849 251.960175 90.89212 L 227.320068 90.89212 C 226.950455 90.816849 226.76564 90.560974 226.76564 90.120712 C 226.76564 89.45842 227.633118 89.018158 229.364288 88.796143 C 233.3396 88.209122 235.331039 86.113144 235.331039 82.511993 L 235.331039 60.077209 C 235.331039 54.677361 234.942551 51.166512 234.169373 49.5522 C 232.694672 46.316055 229.620773 44.701744 224.943924 44.701744 C 222.069946 44.701744 219.011154 45.924706 215.771317 48.366867 C 212.531494 50.812798 210.909683 53.49955 210.909683 56.442192 L 210.909683 82.511993 C 210.909683 86.113144 212.897339 88.209122 216.876404 88.796143 C 218.60759 89.018158 219.475067 89.401978 219.475067 89.955139 C 219.475067 90.504532 219.290253 90.816849 218.920624 90.89212 L 194.280518 90.89212 C 193.910889 90.816849 193.726089 90.560974 193.726089 90.120712 C 193.726089 89.45842 194.593552 89.018158 196.324738 88.796143 C 200.300049 88.209122 202.291473 86.113144 202.291473 82.511993 L 202.291473 13.77771 C 202.291473 12.234901 201.442856 11.166222 199.74939 10.579201 C 199.013916 10.323318 198.221878 10.112595 197.373245 9.943253 C 196.528427 9.781441 195.853287 9.623398 195.355423 9.476654 C 194.861343 9.329887 194.548294 9.19442 194.41629 9.062721 C 194.288071 8.938545 194.223953 8.660088 194.223953 8.238632 C 194.223953 7.817177 194.499268 7.45594 195.053696 7.16243 L 209.140778 0.547134 C 209.582047 0.328888 209.86116 0.215996 209.970535 0.215996 C 210.596619 0.215996 210.909683 0.656258 210.909683 1.540558 Z"/>
    <path id="path70" fill="#000000" stroke="none" d="M 271.462219 48.50309 C 271.239685 48.50309 271.13031 48.668663 271.13031 48.999802 L 271.13031 79.427116 C 271.13031 81.632217 271.616852 83.359413 272.593689 84.608719 C 273.570557 85.858017 274.815186 86.482681 276.323853 86.482681 C 277.83252 86.482681 279.148804 86.230553 280.27652 85.741371 C 281.396698 85.240891 282.377319 84.699036 283.199554 84.112007 C 284.033081 83.524979 284.776093 82.983124 285.43988 82.482643 C 286.103699 81.9897 286.692078 81.741341 287.208801 81.741341 C 287.725494 81.741341 287.981995 81.869278 287.981995 82.128922 C 287.981995 83.00946 287.887695 83.577667 287.706665 83.837311 C 283.286285 89.53067 279.020569 92.379242 274.913269 92.379242 C 270.805939 92.379242 267.713196 91.081009 265.631256 88.495865 C 263.549316 85.899414 262.512115 82.806259 262.512115 79.205109 L 262.512115 48.50309 L 258.367065 48.50309 C 257.337433 48.50309 256.790527 48.171944 256.741486 47.509666 C 256.681152 46.851151 256.78299 46.425934 257.043213 46.241547 C 258.993164 44.992249 261.682343 42.753281 265.106995 39.517136 C 265.476593 39.114494 265.974457 38.508667 266.600555 37.699623 C 267.226654 36.890587 268.13562 35.78804 269.338776 34.391975 C 270.530609 32.995918 271.443359 32.296005 272.069427 32.296005 C 272.695526 32.296005 273.008575 32.555656 273.008575 33.067413 C 273.008575 33.142677 272.382477 35.550972 271.13031 40.288544 C 271.13031 40.950821 271.4245 41.300781 272.012848 41.338409 L 286.103699 41.338409 C 287.725494 41.338409 288.532654 43.614998 288.532654 48.171944 C 288.532654 48.393959 288.385559 48.50309 288.09137 48.50309 Z"/>
    <path id="path74" fill="#000000" stroke="none" d="M 365.524994 24.304977 C 363.993713 24.304977 362.65097 23.827087 361.489349 22.871292 C 360.331451 21.915504 359.75061 20.587166 359.75061 18.875023 C 359.75061 17.170403 360.30127 15.815735 361.406372 14.822319 C 362.511444 13.832649 363.827728 13.335945 365.355286 13.335945 C 366.882782 13.335945 368.176453 13.922966 369.221222 15.100769 C 370.277283 16.274811 370.797729 17.542931 370.797729 18.901367 C 370.797729 20.263557 370.30365 21.505341 369.307953 22.62294 C 368.312256 23.74807 367.048737 24.304977 365.524994 24.304977 M 354.002625 90.89061 C 353.63678 90.819115 353.451965 90.559471 353.451965 90.119202 C 353.451965 89.456917 354.315704 89.016655 356.046875 88.798401 C 360.02594 88.207611 362.013611 86.11541 362.013611 82.514252 L 362.013611 53.355057 C 362.013611 51.812241 361.168762 50.743561 359.475281 50.15654 C 358.736053 49.90065 357.944031 49.689926 357.099152 49.520592 C 356.250519 49.358788 355.579163 49.200745 355.077576 49.053986 C 354.587219 48.907234 354.270416 48.771767 354.142181 48.64006 C 354.010193 48.515884 353.94986 48.237427 353.94986 47.815971 C 353.94986 47.394524 354.225189 47.033279 354.775818 46.739769 L 368.866669 40.124481 C 369.307953 39.906227 369.583252 39.793335 369.692627 39.793335 C 370.318756 39.793335 370.631775 40.233604 370.631775 41.117897 L 370.631775 82.514252 C 370.631775 86.11541 372.62323 88.207611 376.602295 88.798401 C 378.333466 89.016655 379.197174 89.404236 379.197174 89.953629 C 379.197174 90.50679 379.01239 90.819115 378.646545 90.89061 Z"/>
    <path id="path78" fill="#000000" stroke="none" d="M 424.55603 59.747955 C 424.55603 54.566353 423.254822 50.35183 420.663727 47.09687 C 418.061279 43.845673 414.629089 42.22007 410.355835 42.22007 C 404.834137 42.22007 400.926697 44.80899 398.644897 49.990593 C 397.76236 51.977432 397.317291 54.254028 397.317291 56.827896 C 397.317291 62.080986 398.403473 66.453552 400.579712 69.94558 C 403.231171 74.133759 406.712402 76.229729 411.019653 76.229729 C 415.330627 76.229729 418.664764 74.777222 421.022003 71.875977 C 423.379303 68.970978 424.55603 64.92955 424.55603 59.747955 M 397.177704 102.577995 C 396.314026 103.420898 395.604919 104.324005 395.054291 105.2798 C 394.499878 106.235596 394.224548 107.435982 394.224548 108.89225 C 394.224548 110.337227 394.748779 111.868752 395.801056 113.460487 C 396.845825 115.063507 398.275238 116.504723 400.081879 117.791656 C 404.05719 120.730522 408.847168 122.201843 414.444275 122.201843 C 420.045135 122.201843 425.114258 120.576248 429.662842 117.321281 C 434.21521 114.073845 436.489502 110.502792 436.489502 106.626945 C 436.489502 102.751091 434.611237 100.150887 430.854675 98.830078 C 429.085754 98.239296 424.537201 97.87429 417.208923 97.727539 C 409.876801 97.58078 405.128326 97.377579 402.952087 97.121696 C 401.997894 98.224243 401.009705 99.195091 399.998932 100.041763 C 398.984344 100.888428 398.045197 101.731323 397.177704 102.577995 M 427.20752 45.087448 L 442.014984 44.425171 C 442.863556 44.425171 443.414246 44.51548 443.670715 44.69986 C 443.930939 44.884247 444.206268 45.520187 444.500488 46.60392 C 444.794678 47.68766 444.941772 48.703651 444.941772 49.659447 C 444.941772 50.615242 444.851227 51.168396 444.666443 51.315147 C 444.481598 51.461906 444.115753 51.533401 443.56134 51.533401 L 431.295959 51.533401 C 431.518463 51.939804 431.756073 52.361252 432.016357 52.801521 C 432.272827 53.241783 432.604706 53.979324 433.008301 55.006615 C 433.415619 56.037674 433.615509 57.629402 433.615509 59.774292 C 433.615509 61.926704 433.091248 64.169434 432.042725 66.498703 C 430.990448 68.83551 429.455414 70.901375 427.430023 72.700073 C 422.934265 76.745255 417.114594 78.765961 409.97113 78.765961 C 408.092834 78.765961 406.029724 78.416008 403.78186 77.716095 C 403.231171 78.306885 402.491974 78.844986 401.571686 79.345459 C 400.651428 79.838409 399.749969 80.346405 398.863647 80.85817 C 396.657257 82.107483 395.552155 83.356781 395.552155 84.606079 C 395.552155 87.733109 400.745697 89.328598 411.129028 89.403862 C 421.516113 89.475357 428.338989 89.817795 431.601471 90.419861 C 434.856384 91.029465 437.39093 92.233612 439.197571 94.032303 C 442.033844 96.862053 443.451965 100.098198 443.451965 103.733223 C 443.451965 106.860245 442.105499 110.073814 439.416321 113.381462 C 434.739471 119.225342 427.596008 123.12001 417.982086 125.06546 C 414.557465 125.765373 410.929138 126.115326 407.097107 126.115326 C 400.134674 126.115326 394.850616 124.854736 391.24115 122.34108 C 387.631683 119.819893 385.825104 116.779419 385.825104 113.215889 C 385.825104 111.266678 386.289032 109.663651 387.20929 108.391769 C 388.129578 107.127419 389.294983 105.927032 390.716888 104.813194 C 392.131256 103.688072 393.688965 102.510262 395.386169 101.283539 C 397.079681 100.049286 398.701447 98.480133 400.247833 96.568542 C 396.710022 96.275032 393.677673 95.153671 391.161957 93.208221 C 388.634979 91.259003 387.375214 89.34742 387.375214 87.473465 C 387.375214 85.599503 387.869293 84.214737 388.865021 83.315384 C 389.860748 82.412277 391.075195 81.640869 392.512207 80.997406 C 393.949188 80.357697 395.457886 79.755623 397.041962 79.206238 C 398.626038 78.653076 400.006439 77.93811 401.186981 77.057587 C 397.060822 75.439507 393.873749 73.208069 391.629669 70.355743 C 389.381744 67.510941 388.257813 64.395203 388.257813 61.016068 C 388.257813 54.731918 390.54718 49.606766 395.137268 45.636841 C 399.719788 41.666916 405.256561 39.683838 411.740021 39.683838 C 418.219696 39.683838 423.379303 41.482529 427.20752 45.087448"/>
    <path id="path82" fill="#000000" stroke="none" d="M 460.77356 24.304977 C 459.24231 24.304977 457.899597 23.827087 456.737915 22.871292 C 455.580017 21.915504 454.999237 20.587166 454.999237 18.875023 C 454.999237 17.170403 455.549866 15.815735 456.654968 14.822319 C 457.760071 13.832649 459.076355 13.335945 460.603851 13.335945 C 462.131378 13.335945 463.425079 13.922966 464.469788 15.100769 C 465.525848 16.274811 466.046356 17.542931 466.046356 18.901367 C 466.046356 20.263557 465.552277 21.505341 464.556549 22.62294 C 463.560822 23.74807 462.297363 24.304977 460.77356 24.304977 M 449.251221 90.89061 C 448.885406 90.819115 448.700592 90.559471 448.700592 90.119202 C 448.700592 89.456917 449.56427 89.016655 451.295441 88.798401 C 455.274506 88.207611 457.262177 86.11541 457.262177 82.514252 L 457.262177 53.355057 C 457.262177 51.812241 456.417328 50.743561 454.723877 50.15654 C 453.984619 49.90065 453.192596 49.689926 452.347778 49.520592 C 451.499146 49.358788 450.827789 49.200745 450.326141 49.053986 C 449.835846 48.907234 449.519043 48.771767 449.390808 48.64006 C 449.258759 48.515884 449.198425 48.237427 449.198425 47.815971 C 449.198425 47.394524 449.473755 47.033279 450.024445 46.739769 L 464.115234 40.124481 C 464.556549 39.906227 464.831879 39.793335 464.941254 39.793335 C 465.567322 39.793335 465.880402 40.233604 465.880402 41.117897 L 465.880402 82.514252 C 465.880402 86.11541 467.871796 88.207611 471.850861 88.798401 C 473.582062 89.016655 474.445801 89.404236 474.445801 89.953629 C 474.445801 90.50679 474.260956 90.819115 473.895111 90.89061 Z"/>
    <path id="path86" fill="#000000" stroke="none" d="M 494.501068 48.50309 C 494.278564 48.50309 494.169189 48.668663 494.169189 48.999802 L 494.169189 79.427116 C 494.169189 81.632217 494.655731 83.359413 495.632599 84.608719 C 496.609406 85.858017 497.854065 86.482681 499.362732 86.482681 C 500.871368 86.482681 502.187683 86.230553 503.315399 85.741371 C 504.435608 85.240891 505.416229 84.699036 506.238434 84.112007 C 507.07196 83.524979 507.814972 82.983124 508.47876 82.482643 C 509.142609 81.9897 509.730957 81.741341 510.247681 81.741341 C 510.764404 81.741341 511.020905 81.869278 511.020905 82.128922 C 511.020905 83.00946 510.926575 83.577667 510.745544 83.837311 C 506.325195 89.53067 502.059448 92.379242 497.952118 92.379242 C 493.844818 92.379242 490.752075 91.081009 488.670135 88.495865 C 486.588196 85.899414 485.550964 82.806259 485.550964 79.205109 L 485.550964 48.50309 L 481.405945 48.50309 C 480.376282 48.50309 479.829407 48.171944 479.780396 47.509666 C 479.720032 46.851151 479.821869 46.425934 480.082092 46.241547 C 482.032074 44.992249 484.721222 42.753281 488.145905 39.517136 C 488.515503 39.114494 489.013336 38.508667 489.639465 37.699623 C 490.265533 36.890587 491.1745 35.78804 492.377686 34.391975 C 493.569489 32.995918 494.482208 32.296005 495.108337 32.296005 C 495.734406 32.296005 496.047485 32.555656 496.047485 33.067413 C 496.047485 33.142677 495.421356 35.550972 494.169189 40.288544 C 494.169189 40.950821 494.463348 41.300781 495.051758 41.338409 L 509.142609 41.338409 C 510.764404 41.338409 511.571533 43.614998 511.571533 48.171944 C 511.571533 48.393959 511.424408 48.50309 511.13028 48.50309 Z"/>
    <path id="path94" fill="#000000" stroke="none" d="M 21.970552 77.386841 C 26.059006 81.465897 30.411478 84.273064 35.02042 85.804588 C 40.617535 87.652206 45.237789 86.760376 48.869881 83.136642 C 52.505741 79.509148 53.591969 75.125298 52.132347 69.981323 C 50.932968 65.668976 48.368252 61.544769 44.438202 57.623756 C 36.755375 49.958603 29.566629 46.891785 22.871973 48.427078 C 20.424179 48.995285 18.183826 50.297272 16.150911 52.325508 C 12.55654 55.911613 11.462764 59.911644 12.869586 64.329361 C 14.068966 68.06974 16.961815 72.280502 21.540585 76.957863 Z M 11.051656 15.546303 C 11.455221 15.14743 11.851244 15.139915 12.243493 15.531258 C 12.631973 15.918846 12.341557 17.758926 11.360931 21.043999 C 10.391621 24.329063 9.822101 26.417511 9.667464 27.298042 C 9.120576 30.131561 8.675522 33.070427 8.339848 36.10714 C 7.242301 46.139198 8.075833 52.611488 10.836674 55.516502 C 11.047884 55.30954 11.22138 55.008499 11.360931 54.602097 C 11.511797 54.199463 11.79844 53.49955 12.224636 52.502365 C 12.65083 51.501419 13.797409 50.071495 15.66437 48.208824 C 17.523788 46.353683 20.005527 44.829681 23.105814 43.629303 C 26.20233 42.43644 29.344107 41.868233 32.519821 41.917152 C 39.34272 42.075195 45.283051 44.671638 50.337048 49.714012 C 55.387268 54.752617 57.963299 60.716919 58.068909 67.599373 C 58.174515 74.485596 55.70409 80.446129 50.668949 85.469681 C 45.626266 90.500763 39.493584 92.491371 32.263355 91.433975 C 25.036894 90.384109 18.67791 87.117859 13.182633 81.635223 C 6.333335 74.801682 2.595641 66.628525 1.96955 57.115761 C 1.422661 48.882393 3.244363 37.604797 7.438426 23.282959 C 7.906108 21.676178 8.528431 20.080673 9.294072 18.51152 C 10.063487 16.942368 10.648089 15.952705 11.051656 15.546303"/>
    <path id="path102" fill="#000000" stroke="none" d="M 329.436432 80.175949 C 334.018982 75.50235 336.908051 71.295357 338.107422 67.551208 C 339.514252 63.133492 338.420502 59.1297 334.826111 55.543594 C 332.796997 53.519119 330.556641 52.217133 328.105072 51.648926 C 321.4104 50.11364 314.225433 53.18045 306.542603 60.845604 C 302.608765 64.770378 300.044067 68.887054 298.844666 73.199417 C 297.385071 78.347153 298.471283 82.731003 302.107147 86.358498 C 305.739227 89.97847 310.355713 90.870285 315.956604 89.026436 C 320.561798 87.49115 324.917999 84.683975 329.00647 80.604927 Z M 341.682953 21.729607 C 342.448578 23.302528 343.067139 24.898026 343.538605 26.504807 C 347.732666 40.822876 349.554382 52.100479 349.007477 60.34137 C 348.381378 69.850372 344.643677 78.019768 337.794403 84.85331 C 332.299133 90.335953 325.940125 93.605957 318.7099 94.65583 C 311.483459 95.713226 305.350769 93.726379 300.308075 88.695297 C 295.269165 83.667976 292.806274 77.711212 292.904358 70.82122 C 293.013733 63.938766 295.585968 57.974464 300.639984 52.932098 C 305.69397 47.889732 311.630524 45.293282 318.457214 45.135239 C 321.632935 45.086319 324.778473 45.658287 327.871216 46.851151 C 330.971497 48.047775 333.453247 49.575531 335.316437 51.430672 C 337.179626 53.289574 338.322418 54.719505 338.75238 55.720451 C 339.182373 56.725166 339.46524 57.417549 339.612335 57.823944 C 339.751892 58.226585 339.932922 58.531387 340.140381 58.73835 C 342.89743 55.829582 343.734711 49.361046 342.640961 39.332748 C 342.301483 36.288513 341.856445 33.353401 341.30957 30.523651 C 341.151154 29.635597 340.589172 27.554672 339.612335 24.265839 C 338.631683 20.980782 338.341278 19.136925 338.733521 18.749336 C 339.122009 18.358002 339.52179 18.365517 339.9216 18.768158 C 340.332703 19.174553 340.913544 20.160454 341.682953 21.729607"/>
</svg>
