<?xml version="1.0" encoding="UTF-8"?>
<!-- Generated by Pixelmator Pro 3.4.3 -->
<svg width="512" height="388" viewBox="0 0 512 388" xmlns="http://www.w3.org/2000/svg">
    <g id="Group">
        <path id="Path" fill="#e5646e" stroke="none" d="M 501.698181 387.674042 L 269.5242 387.674042 L 256.066956 385.562195 L 242.827072 387.674042 L 10.301811 387.674042 C 4.612121 387.674042 0 383.061951 0 377.372223 L 0 42.563385 C 0 36.873688 4.612121 32.261566 10.301811 32.261566 L 17.513079 32.261566 L 256 48.316956 L 493.577271 32.261566 L 501.698181 32.261566 C 507.387878 32.261566 512 36.873688 512 42.563385 L 512 377.372223 C 512 383.061951 507.387878 387.674042 501.698181 387.674042 Z"/>
        <path id="path1" fill="#db4655" stroke="none" d="M 494.486908 32.261566 L 494.486908 350.566925 C 494.486908 360.796631 486.163086 369.110199 475.943665 369.110199 L 286.905426 369.110199 C 277.252655 369.110199 269.5242 378.010925 269.5242 387.674042 L 242.827072 387.674042 C 242.827072 378.010925 234.74736 369.110199 225.094574 369.110199 L 36.056339 369.110199 C 25.826639 369.110199 17.513079 360.796631 17.513079 350.566925 L 17.513079 32.261566 Z"/>
        <path id="path2" fill="#f1f6f7" stroke="none" d="M 475.636658 353.658478 L 285.436401 353.952087 C 268.36734 353.952087 256 370.594666 256 387.674042 C 256 370.594666 246.21843 353.42569 229.149368 353.42569 L 38.839886 354.68866 C 35.99556 354.68866 33.68898 352.381073 33.68898 349.534668 L 33.68898 6.510132 C 33.68898 3.663757 35.99556 1.35614 38.839886 1.35614 L 48.111515 0.325958 L 226.847931 0.325958 C 236.080414 0.325958 244.367188 4.376617 250.031128 10.799805 C 254.837952 16.250488 255.803238 27.938934 255.803238 35.779633 L 260.888214 35.253204 C 260.888214 27.412506 260.66983 16.250488 265.476654 10.798767 C 271.139557 4.376617 279.4263 0.324921 288.659821 0.324921 L 477.698059 0.324921 C 480.542389 0.324921 482.848969 2.632538 482.848969 5.478912 L 482.848969 340.265137 L 480.788605 348.504486 C 480.787567 351.350891 478.482025 353.658478 475.636658 353.658478 Z"/>
        <path id="path3" fill="#e1ebf0" stroke="none" d="M 481.094574 340.265137 L 481.094574 350.566925 C 481.094574 353.411255 478.787964 355.717834 475.943665 355.717834 L 286.905426 355.717834 C 269.835327 355.717834 256 369.563477 256 386.64386 C 256 378.103638 252.538589 370.367004 246.944717 364.773102 C 241.35083 359.17923 233.624466 355.717834 225.094574 355.717834 L 36.056339 355.717834 C 33.212006 355.717834 30.905432 353.411255 30.905432 350.566925 L 30.905432 5.476868 C 30.905432 2.632538 33.212006 0.325958 36.056339 0.325958 L 46.35815 0.325958 L 46.35815 336.144409 C 46.35815 338.420044 48.203205 340.265137 50.478874 340.265137 L 225.094574 340.265137 C 236.043335 340.265137 246.12262 344.08606 254.067368 350.46286 C 255.199554 351.37146 256.800446 351.37146 257.932617 350.46286 C 265.87738 344.08606 275.956665 340.265137 286.905426 340.265137 Z"/>
        <g id="g1">
            <path id="path4" fill="#e1ebf0" stroke="none" d="M 263.726349 10.802887 L 263.726349 366.194763 C 258.915405 371.64444 256 378.804199 256 386.64386 C 256 378.804199 253.084579 371.64444 248.273636 366.194763 L 248.273636 10.802887 C 253.084579 16.252563 256 23.412323 256 31.251984 C 256 23.412323 258.915405 16.252563 263.726349 10.802887 Z"/>
        </g>
        <g id="g2">
            <path id="path5" fill="#d2e4e7" stroke="none" d="M 263.726349 346.497711 L 263.726349 366.194763 C 258.768097 371.764954 255.977325 380.215546 256 387.674042 C 256.022675 380.216553 253.229843 371.764954 248.273636 366.194763 L 248.273636 346.497711 C 250.303101 347.672119 252.239853 349.001038 254.063248 350.463898 C 255.196457 351.370483 256.803528 351.370483 257.936737 350.463898 C 259.760162 349.001038 261.696899 347.672119 263.726349 346.497711 Z"/>
        </g>
        <path id="path6" fill="#b3e59f" stroke="none" d="M 219.644913 36.382294 L 219.644913 91.63092 L 206.353516 94.000305 L 128.361588 93.516144 C 127.558052 93.516144 126.764816 93.320404 126.043686 92.959839 L 95.699707 77.456635 C 94.144127 76.673706 92.300102 76.72522 90.806343 77.600861 L 62.027203 93.237976 L 63.093441 84.965637 L 63.057384 37.412476 C 63.057384 34.569183 65.36499 32.261566 68.20829 32.261566 L 75.419556 31.231384 L 214.494019 31.231384 C 217.337311 31.231384 219.644913 33.539001 219.644913 36.382294 Z"/>
        <path id="path7" fill="#fdcd08" stroke="none" d="M 219.644913 206.176743 L 219.644913 262.8367 L 141.47374 268.556274 L 65.197067 262.8367 L 63.443703 207.885818 C 63.443703 205.042511 65.751312 202.734909 68.594604 202.734909 L 75.419556 201.025848 L 214.494019 201.025848 C 217.337311 201.025848 219.644913 203.333435 219.644913 206.176743 Z"/>
        <path id="path8" fill="#c27e4e" stroke="none" d="M 441.059662 121.175476 L 299.969147 119.826965 C 297.124847 119.826965 294.818268 117.520386 294.818268 114.676056 L 294.664764 39.26474 C 294.664764 36.42041 296.971313 34.113831 299.815674 34.113831 L 354.825256 31.231384 L 431.336823 31.231384 L 441.432587 33.433929 C 444.276917 33.433929 446.583496 35.740479 446.583496 38.584808 L 446.210571 116.023529 C 446.210571 118.868896 443.905029 121.175476 441.059662 121.175476 Z"/>
        <path id="path9" fill="#95d6a4" stroke="none" d="M 449.674042 36.382294 L 449.674042 110.555328 L 448.64386 117.766602 C 448.64386 120.609894 446.336273 122.917511 443.49295 122.917511 L 350.127655 123.947693 L 368.25882 93.320404 C 371.205139 88.272522 375.871857 84.460846 381.414246 82.575623 L 400.791931 75.992767 C 406.7052 73.983917 411.608826 69.780762 414.503662 64.248688 L 431.336823 31.231384 L 444.523132 31.231384 C 447.366455 31.231384 449.674042 33.539001 449.674042 36.382294 Z"/>
        <path id="path10" fill="#b4e3f5" stroke="none" d="M 443.77832 291.352112 L 298.752502 292.228821 C 295.908203 292.228821 293.601624 289.922241 293.601624 287.077911 L 293.601624 207.885818 C 293.601624 205.041473 295.908203 202.734909 298.752502 202.734909 L 305.4487 201.024811 L 444.523132 201.024811 C 447.367462 201.024811 449.674042 203.33139 449.674042 206.175705 L 449.674042 221.11438 L 446.583496 228.401886 L 449.674042 236.567093 L 449.674042 252.019806 L 446.583496 259.613281 L 449.674042 267.472534 L 449.674042 280.349792 L 448.92923 286.201202 C 448.92923 289.045532 446.62265 291.352112 443.77832 291.352112 Z"/>
        <path id="path11" fill="#8edcef" stroke="none" d="M 449.674042 280.349792 L 449.674042 288.591248 C 449.674042 291.435547 447.367462 293.742126 444.523132 293.742126 L 297.207245 293.742126 C 294.362915 293.742126 292.056335 291.435547 292.056335 288.591248 L 292.056335 267.472534 L 295.782501 259.613281 L 292.056335 252.019806 L 292.056335 236.567093 L 295.782501 228.401886 L 292.056335 221.11438 L 292.056335 206.176743 C 292.056335 203.332397 294.362915 201.025848 297.207245 201.025848 L 305.4487 201.025848 L 305.4487 277.259247 C 305.4487 278.966248 306.832214 280.349792 308.539246 280.349792 Z"/>
        <g id="g3">
            <g id="g4">
                <path id="path12" fill="#e1ebf0" stroke="none" d="M 183.558701 162.579468 L 98.108269 162.579468 C 93.841255 162.579468 90.381912 159.121155 90.381912 154.853119 C 90.381912 150.585083 93.841255 147.12677 98.108269 147.12677 L 183.558701 147.12677 C 187.825699 147.12677 191.285049 150.585083 191.285049 154.853119 C 191.285049 159.121155 187.825699 162.579468 183.558701 162.579468 Z"/>
            </g>
            <g id="g5">
                <path id="path13" fill="#e1ebf0" stroke="none" d="M 207.28067 332.372894 L 74.387314 332.372894 C 70.120308 332.372894 66.660957 328.914581 66.660957 324.646545 C 66.660957 320.378479 70.120308 316.920166 74.387314 316.920166 L 207.28067 316.920166 C 211.547699 316.920166 215.007019 320.378479 215.007019 324.646545 C 215.007019 328.914581 211.547699 332.372894 207.28067 332.372894 Z"/>
            </g>
            <g id="g6">
                <path id="path14" fill="#e1ebf0" stroke="none" d="M 446.06842 162.579468 L 295.661957 162.579468 C 291.393921 162.579468 287.935608 159.121155 287.935608 154.853119 C 287.935608 150.585083 291.393921 147.12677 295.661957 147.12677 L 446.06842 147.12677 C 450.336456 147.12677 453.794769 150.585083 453.794769 154.853119 C 453.794769 159.121155 450.336456 162.579468 446.06842 162.579468 Z"/>
            </g>
            <g id="g7">
                <path id="path15" fill="#e1ebf0" stroke="none" d="M 418.877808 332.372894 L 322.851532 332.372894 C 318.583496 332.372894 315.125183 328.914581 315.125183 324.646545 C 315.125183 320.378479 318.583496 316.920166 322.851532 316.920166 L 418.877808 316.920166 C 423.145844 316.920166 426.604156 320.378479 426.604156 324.646545 C 426.604156 328.914581 423.145844 332.372894 418.877808 332.372894 Z"/>
            </g>
        </g>
        <path id="path16" fill="#c27e4e" stroke="none" d="M 210.737961 99.256317 L 177.772171 85.403473 L 173.657639 80.299927 L 143.298203 64.779236 C 141.758057 64.011749 139.936707 64.064301 138.442932 64.918304 L 120.41581 74.803925 L 115.961304 81.19516 L 93.253029 89.69931 Z"/>
        <path id="path17" fill="#b36d3c" stroke="none" d="M 210.733841 99.254242 L 93.251991 89.704468 L 120.41787 74.808044 L 130.279785 79.847687 C 130.860809 80.144379 131.502625 80.29892 132.154724 80.29892 L 173.657639 80.29892 Z"/>
        <path id="path18" fill="#e5646e" stroke="none" d="M 171.738403 262.835663 C 171.738403 248.450226 161.910477 236.361038 148.601563 232.915085 C 146.11882 232.272263 143.170441 233.09227 140.486832 233.09227 C 123.417755 233.09227 111.207016 246.518646 111.207016 263.587708 L 140.83606 266.627747 Z"/>
        <path id="path19" fill="#db4655" stroke="none" d="M 149.077515 233.054169 C 136.014801 236.64949 126.413521 248.620193 126.413521 262.8367 L 114.295502 265.399811 L 109.930626 262.8367 C 109.930626 245.766602 123.765953 231.931274 140.83606 231.931274 C 143.689651 231.931274 146.450546 232.322754 149.077515 233.054169 Z"/>
        <path id="path20" fill="#fdcd08" stroke="none" d="M 354.825256 31.231384 C 353.259399 65.186157 326.011108 92.434448 292.056335 94.000305 L 293.601624 38.584808 C 293.601624 35.741516 295.90921 33.433929 298.752502 33.433929 L 305.4487 31.231384 Z"/>
        <g id="g8">
            <path id="path21" fill="#8edcef" stroke="none" d="M 449.674042 252.019806 L 449.674042 267.472534 C 444.832184 267.472534 442.730621 268.461487 439.8255 269.831604 C 436.209564 271.531433 431.697357 273.653625 423.404419 273.653625 C 415.111481 273.653625 410.599274 271.531433 406.973022 269.831604 C 404.067932 268.461487 401.96637 267.472534 397.124512 267.472534 C 392.292938 267.472534 390.191406 268.461487 387.286285 269.831604 C 383.660065 271.531433 379.158142 273.653625 370.865204 273.653625 C 362.56192 273.653625 358.060059 271.531433 354.433777 269.831604 C 351.528717 268.461487 349.437439 267.472534 344.595581 267.472534 C 339.753723 267.472534 337.652161 268.461487 334.74704 269.831604 C 331.120819 271.531433 326.618896 273.653625 318.325958 273.653625 C 310.03302 273.653625 305.520813 271.531433 301.904877 269.831604 C 298.999756 268.461487 296.898193 267.472534 292.056335 267.472534 L 296.132751 259.263 L 292.056335 252.019806 C 300.349274 252.019806 304.861481 254.141983 308.477417 255.841766 C 311.382538 257.211914 313.4841 258.200897 318.325958 258.200897 C 323.167816 258.200897 325.259094 257.211914 328.164185 255.841766 C 331.790436 254.141983 336.302643 252.019806 344.595581 252.019806 C 352.888519 252.019806 357.390442 254.141983 361.016663 255.841766 C 363.921783 257.211914 366.023315 258.200897 370.865204 258.200897 C 375.696747 258.200897 377.798309 257.211914 380.7034 255.841766 C 384.329651 254.141983 388.831543 252.019806 397.124512 252.019806 C 405.427765 252.019806 409.929657 254.141983 413.555908 255.841766 C 416.461029 257.211914 418.562561 258.200897 423.404419 258.200897 C 428.246277 258.200897 430.347839 257.211914 433.25296 255.841766 C 436.868896 254.141983 441.381104 252.019806 449.674042 252.019806 Z"/>
        </g>
        <g id="g9">
            <path id="path22" fill="#8edcef" stroke="none" d="M 449.674042 221.11438 L 449.674042 236.567093 C 444.832184 236.567093 442.730621 237.556061 439.8255 238.926178 C 436.209564 240.626007 431.697357 242.748169 423.404419 242.748169 C 415.111481 242.748169 410.599274 240.626007 406.973022 238.926178 C 404.067932 237.556061 401.96637 236.567093 397.124512 236.567093 C 392.292938 236.567093 390.191406 237.556061 387.286285 238.926178 C 383.660065 240.626007 379.158142 242.748169 370.865204 242.748169 C 362.56192 242.748169 358.060059 240.626007 354.433777 238.926178 C 351.528717 237.556061 349.437439 236.567093 344.595581 236.567093 C 339.753723 236.567093 337.652161 237.556061 334.74704 238.926178 C 331.120819 240.626007 326.618896 242.748169 318.325958 242.748169 C 310.03302 242.748169 305.520813 240.626007 301.904877 238.926178 C 298.999756 237.556061 296.898193 236.567093 292.056335 236.567093 L 295.957611 228.225693 L 292.056335 221.11438 C 300.349274 221.11438 304.861481 223.236542 308.477417 224.93634 C 311.382538 226.306458 313.4841 227.295456 318.325958 227.295456 C 323.167816 227.295456 325.259094 226.306458 328.164185 224.93634 C 331.790436 223.236542 336.302643 221.11438 344.595581 221.11438 C 352.888519 221.11438 357.390442 223.236542 361.016663 224.93634 C 363.921783 226.306458 366.023315 227.295456 370.865204 227.295456 C 375.696747 227.295456 377.798309 226.306458 380.7034 224.93634 C 384.329651 223.236542 388.831543 221.11438 397.124512 221.11438 C 405.427765 221.11438 409.929657 223.236542 413.555908 224.93634 C 416.461029 226.306458 418.562561 227.295456 423.404419 227.295456 C 428.246277 227.295456 430.347839 226.306458 433.25296 224.93634 C 436.868896 223.236542 441.381104 221.11438 449.674042 221.11438 Z"/>
        </g>
        <g id="g10">
            <path id="path23" fill="#50cdea" stroke="none" d="M 305.4487 254.481918 L 305.4487 271.397522 C 304.140381 270.882416 302.986542 270.336426 301.904877 269.831604 C 298.999756 268.461487 296.898193 267.472534 292.056335 267.472534 L 292.056335 252.019806 C 298.206512 252.019806 302.286041 253.183914 305.4487 254.481918 Z"/>
        </g>
        <g id="g11">
            <path id="path24" fill="#50cdea" stroke="none" d="M 305.4487 223.576492 L 305.4487 240.492081 C 304.140381 239.97699 302.986542 239.431 301.904877 238.926178 C 298.999756 237.556061 296.898193 236.567093 292.056335 236.567093 L 292.056335 221.11438 C 298.206512 221.11438 302.286041 222.278488 305.4487 223.576492 Z"/>
        </g>
        <path id="path25" fill="#c27e4e" stroke="none" d="M 219.644913 91.63092 L 219.644913 110.555328 L 218.343796 117.339081 C 218.343796 120.182373 216.036179 122.48999 213.192886 122.48999 L 68.723381 122.84024 C 65.880081 122.84024 63.572475 120.532623 63.572475 117.689331 L 64.320389 93.999298 L 91.222542 77.320648 C 92.716301 76.445007 94.560326 76.393494 96.115898 77.176422 L 104.542778 79.421204 L 127.35099 91.073578 C 128.072113 91.434143 128.865341 91.629883 129.6689 91.629883 L 219.644913 91.629883 Z"/>
        <path id="path26" fill="#95d6a4" stroke="none" d="M 75.419556 31.231384 L 75.419556 84.996552 L 68.723381 93.237976 L 62.027203 93.237976 L 62.027203 36.382294 C 62.027203 33.539001 64.334808 31.231384 67.178108 31.231384 Z"/>
        <path id="path27" fill="#b36d3c" stroke="none" d="M 75.419556 107.464783 L 75.419556 98.431122 C 75.419556 97.339142 75.995422 96.328522 76.934952 95.772217 L 104.542778 79.423248 L 96.115898 75.117096 C 94.560326 74.334167 92.716301 74.385681 91.222542 75.261322 L 62.027203 93.237976 L 62.027203 104.600891 L 62.027203 118.796783 C 62.027203 121.641113 64.333778 123.947693 67.178108 123.947693 L 214.494019 123.947693 C 217.338333 123.947693 219.644913 121.641113 219.644913 118.796783 L 219.644913 110.555328 L 78.510101 110.555328 C 76.803093 110.555328 75.419556 109.171783 75.419556 107.464783 Z"/>
        <path id="path28" fill="#b36d3c" stroke="none" d="M 358.060059 110.555328 L 357.023682 117.251495 L 350.127655 123.947693 L 297.207245 123.947693 C 294.362915 123.947693 292.056335 121.641113 292.056335 118.796783 L 292.056335 94.000305 C 294.358765 93.892151 296.518036 89.684875 298.752502 89.34906 C 300.987 89.013214 303.295624 92.54776 305.4487 91.991455 L 305.4487 107.464783 C 305.4487 109.171783 306.832214 110.555328 308.539246 110.555328 Z"/>
        <path id="path29" fill="#78c2a4" stroke="none" d="M 449.674042 110.555328 L 449.674042 118.796783 C 449.674042 121.640076 447.366455 123.947693 444.523132 123.947693 L 350.127655 123.947693 L 358.060059 110.555328 Z"/>
        <path id="path30" fill="#f9b419" stroke="none" d="M 305.4487 31.231384 L 305.4487 91.991455 C 301.142548 93.104065 296.661255 93.783997 292.056335 94.000305 L 292.056335 36.382294 C 292.056335 33.539001 294.363922 31.231384 297.207245 31.231384 Z"/>
        <path id="path31" fill="#b4e3f5" stroke="none" d="M 219.644913 262.8367 L 219.644913 280.349792 L 217.581451 287.077911 C 217.581451 289.921204 215.273849 292.228821 212.430557 292.228821 L 69.235382 291.24292 C 66.392082 291.24292 64.084473 288.935303 64.084473 286.092041 L 63.443703 264.172852 L 75.419556 262.8367 Z"/>
        <path id="path32" fill="#8edcef" stroke="none" d="M 219.644913 280.349792 L 219.644913 288.591248 C 219.644913 291.435547 217.338333 293.742126 214.494019 293.742126 L 67.178108 293.742126 C 64.333778 293.742126 62.027203 291.435547 62.027203 288.591248 L 62.027203 262.8367 L 68.723381 259.964569 L 75.419556 262.8367 L 75.419556 277.259247 C 75.419556 278.966248 76.803093 280.349792 78.510101 280.349792 Z"/>
        <path id="path33" fill="#f9b419" stroke="none" d="M 75.419556 201.025848 L 75.419556 262.8367 L 62.027203 262.8367 L 62.027203 206.176743 C 62.027203 203.333435 64.334808 201.025848 67.178108 201.025848 Z"/>
    </g>
</svg>
