<?xml version="1.0" encoding="UTF-8"?>
<!-- Generated by Pixelmator Pro 3.4.3 -->
<svg width="512" height="548" viewBox="0 0 512 548" xmlns="http://www.w3.org/2000/svg">
    <g id="Group">
        <path id="Path" fill="#62d8f9" stroke="none" d="M 511.609039 273.448761 C 511.906799 424.41745 388.704407 547.881226 237.619415 548 C 164.247025 548.0578 97.591698 519.312378 48.347584 472.471283 C 45.657974 469.91214 45.621555 465.631958 48.246895 463.008636 L 65.697739 445.571075 C 68.235252 443.035522 72.324821 442.989502 74.92981 445.456573 C 118.159538 486.382111 176.859589 511.151276 241.348022 510.099152 C 371.240723 507.97995 475.532318 400.372864 473.684631 270.574982 C 471.85083 141.747925 366.760162 37.87085 237.398758 37.87085 C 172.424026 37.87085 113.580452 64.07959 70.86702 106.482178 L 83.214996 118.82077 C 86.831131 122.434113 85.156952 128.604462 80.21048 129.898468 L 8.694361 148.615021 C 3.796084 149.897247 -0.670527 145.434082 0.612687 140.53952 L 19.343529 69.077972 C 20.638529 64.135254 26.814661 62.463409 30.429724 66.075714 L 44.07056 79.706177 C 93.652084 30.451477 161.959091 0 237.399826 0 C 388.655151 0 511.310181 122.378448 511.609039 273.448761 Z"/>
        <path id="path1" fill="#00bef7" stroke="none" d="M 473.823883 135.156952 C 477.388611 151.544464 479.283417 168.553894 479.283417 186.008545 C 479.283417 206.350891 476.726624 226.096008 471.927948 244.945313 C 473.097626 254.467865 473.710327 264.161682 473.710327 274 C 473.710327 404.405792 367.906281 510.130219 237.399826 510.130219 C 174.472031 510.130219 117.28656 485.549408 74.942665 445.467285 C 72.332314 442.996979 68.238464 443.032318 65.695595 445.572144 L 48.246895 463.008636 C 45.620483 465.633057 45.656902 469.913208 48.347584 472.471283 C 97.543503 519.266357 164.114212 548 237.399826 548 C 388.937897 548 511.226654 426.127808 511.607971 274.705322 C 511.736511 223.76593 497.937134 176.06424 473.823883 135.156952 Z"/>
        <g id="g1">
            <path id="path2" fill="#c56e37" stroke="none" d="M 415.747223 274 C 415.747223 372.423401 335.898376 452.211304 237.399826 452.211304 C 138.901291 452.211304 59.052448 372.423401 59.052448 274 C 59.052448 175.576599 138.901291 95.788696 237.399826 95.788696 C 335.898376 95.788696 415.747223 175.576599 415.747223 274 Z"/>
            <path id="path3" fill="#a95e2c" stroke="none" d="M 330.613831 122.046661 C 347.276306 149.151245 356.891846 181.047638 356.891846 215.189514 C 356.891846 313.613342 277.043396 393.400879 178.544479 393.400879 C 144.375427 393.400879 112.455765 383.792664 85.330475 367.142883 C 116.701729 418.173218 173.069916 452.211304 237.399826 452.211304 C 335.898773 452.211304 415.747223 372.423828 415.747223 274 C 415.747223 209.719177 381.683167 153.393982 330.613831 122.046661 Z"/>
            <path id="path4" fill="#eff3f5" stroke="none" d="M 382.307617 274 C 382.307617 353.969299 317.430176 418.797241 237.399826 418.797241 C 157.369476 418.797241 92.49205 353.969299 92.49205 274 C 92.49205 194.030731 157.369476 129.202759 237.399826 129.202759 C 317.430176 129.202759 382.307617 194.030731 382.307617 274 Z"/>
        </g>
        <g id="g2">
            <path id="path5" fill="#595959" stroke="none" d="M 237.399826 172.478729 C 241.97142 172.478729 245.675369 168.776489 245.675369 164.209473 L 245.675369 157.049103 C 245.675369 152.480988 241.970337 148.779846 237.399826 148.779846 C 232.829315 148.779846 229.124283 152.482056 229.124283 157.049103 L 229.124283 164.209473 C 229.124283 168.776489 232.829315 172.478729 237.399826 172.478729 Z"/>
            <path id="path6" fill="#595959" stroke="none" d="M 245.676453 263.513062 L 245.676453 200.487732 C 245.676453 195.919647 241.97142 192.218506 237.400909 192.218506 C 232.830399 192.218506 229.125366 195.920685 229.125366 200.487732 L 229.125366 263.511993 C 226.500015 265.584137 224.679092 268.615265 224.178894 272.078796 L 179.205353 298.024231 C 175.247528 300.308289 173.890411 305.365479 176.176208 309.320313 C 177.709 311.973633 180.490723 313.455994 183.350632 313.455994 C 184.754868 313.455994 186.178406 313.098511 187.480911 312.347168 L 232.445847 286.406006 C 233.979721 287.018219 235.648529 287.363922 237.400909 287.363922 C 244.788498 287.363922 250.777161 281.379791 250.777161 273.997833 C 250.776108 269.743378 248.778442 265.960907 245.676453 263.513062 Z"/>
            <path id="path7" fill="#595959" stroke="none" d="M 175.295731 183.053436 C 176.82959 185.706726 179.610245 187.189087 182.470154 187.189087 C 183.874405 187.189087 185.297943 186.831604 186.600433 186.080261 C 190.558273 183.796173 191.91539 178.738983 189.629593 174.78418 L 186.046661 168.582764 C 183.760864 164.62796 178.697632 163.272949 174.741959 165.555939 C 170.784134 167.839966 169.427002 172.897217 171.712799 176.85202 Z"/>
            <path id="path8" fill="#595959" stroke="none" d="M 146.383789 211.943298 L 140.177673 208.363068 C 136.216644 206.079041 131.156631 207.434052 128.872971 211.389923 C 126.587181 215.344727 127.944298 220.403046 131.90213 222.686005 L 138.108246 226.266174 C 139.411819 227.017578 140.834274 227.375031 142.238525 227.375031 C 145.098434 227.375031 147.881241 225.892639 149.412949 223.23938 C 151.697662 219.284546 150.341629 214.227325 146.383789 211.943298 Z"/>
            <path id="path9" fill="#595959" stroke="none" d="M 135.801041 274 C 135.801041 269.431915 132.096008 265.730743 127.525497 265.730743 L 120.359634 265.730743 C 115.788048 265.730743 112.084084 269.432983 112.084084 274 C 112.084084 278.567017 115.789116 282.269257 120.359634 282.269257 L 127.525497 282.269257 C 132.097061 282.269257 135.801041 278.568085 135.801041 274 Z"/>
            <path id="path10" fill="#595959" stroke="none" d="M 138.107178 321.733795 L 131.901047 325.313965 C 127.943237 327.598022 126.586098 332.655273 128.871887 336.610077 C 130.405762 339.263367 133.186401 340.745728 136.046326 340.745728 C 137.450577 340.745728 138.8741 340.388275 140.176605 339.636932 L 146.382736 336.056732 C 150.340546 333.772675 151.697662 328.715454 149.411896 324.76062 C 147.126099 320.804779 142.062866 319.450806 138.107178 321.733795 Z"/>
            <path id="path11" fill="#595959" stroke="none" d="M 186.600433 361.919769 C 182.640457 359.635712 177.579376 360.990723 175.295731 364.946594 L 171.712799 371.14798 C 169.427002 375.102783 170.784134 380.161102 174.741959 382.444092 C 176.045517 383.195435 177.467987 383.552887 178.872238 383.552887 C 181.732147 383.552887 184.514938 382.070526 186.046661 379.417236 L 189.629593 373.21582 C 191.91539 369.261017 190.558273 364.203796 186.600433 361.919769 Z"/>
            <path id="path12" fill="#595959" stroke="none" d="M 237.399826 375.521271 C 232.828262 375.521271 229.124283 379.223511 229.124283 383.790527 L 229.124283 390.950928 C 229.124283 395.519012 232.829315 399.220123 237.399826 399.220123 C 241.970337 399.220123 245.675369 395.517944 245.675369 390.950928 L 245.675369 383.790527 C 245.676453 379.223511 241.97142 375.521271 237.399826 375.521271 Z"/>
            <path id="path13" fill="#595959" stroke="none" d="M 299.503937 364.946594 C 297.217072 360.990723 292.155975 359.63678 288.199249 361.919769 C 284.241394 364.203796 282.884277 369.261017 285.170074 373.21582 L 288.753021 379.417236 C 290.286865 382.070526 293.067505 383.552887 295.927429 383.552887 C 297.331696 383.552887 298.755188 383.195435 300.057709 382.444092 C 304.015533 380.160034 305.37265 375.102783 303.086853 371.14798 Z"/>
            <path id="path14" fill="#595959" stroke="none" d="M 342.897552 325.313965 L 336.691437 321.733795 C 332.731445 319.449738 327.67038 320.804779 325.386688 324.76062 C 323.100922 328.715454 324.458038 333.773743 328.415863 336.056732 L 334.621979 339.636932 C 335.925568 340.388275 337.348022 340.745728 338.752258 340.745728 C 341.612183 340.745728 344.394958 339.263367 345.926666 336.610077 C 348.212463 332.655273 346.856445 327.596954 342.897552 325.313965 Z"/>
            <path id="path15" fill="#595959" stroke="none" d="M 354.440063 265.730743 L 347.275238 265.730743 C 342.703674 265.730743 338.999695 269.432983 338.999695 274 C 338.999695 278.567017 342.704712 282.269257 347.275238 282.269257 L 354.440063 282.269257 C 359.011597 282.269257 362.715576 278.567017 362.715576 274 C 362.715576 269.432983 359.011597 265.730743 354.440063 265.730743 Z"/>
            <path id="path16" fill="#595959" stroke="none" d="M 332.562195 227.376099 C 333.966461 227.376099 335.390015 227.018616 336.692505 226.267303 L 342.89859 222.687073 C 346.856445 220.403046 348.213562 215.345825 345.927765 211.390991 C 343.641968 207.436218 338.578735 206.081177 334.623077 208.364136 L 328.416931 211.944336 C 324.459106 214.228394 323.10199 219.285645 325.387787 223.240448 C 326.920563 225.892639 329.701233 227.376099 332.562195 227.376099 Z"/>
            <path id="path17" fill="#595959" stroke="none" d="M 300.057709 165.555939 C 296.097748 163.271912 291.036652 164.625854 288.753021 168.582764 L 285.170074 174.78418 C 282.884277 178.738983 284.241394 183.797302 288.199249 186.080261 C 289.502808 186.831604 290.925232 187.189087 292.329498 187.189087 C 295.189423 187.189087 297.972229 185.706726 299.503937 183.053436 L 303.086853 176.85202 C 305.37265 172.897217 304.016602 167.839966 300.057709 165.555939 Z"/>
        </g>
    </g>
</svg>
